<svg width="60" height="60" viewBox="0 0 60 60" fill="none" xmlns="http://www.w3.org/2000/svg">
<g clip-path="url(#clip0_916_1461)">
<path d="M22.1365 18.7348C22.1365 15.172 19.2363 12.2789 15.6816 12.2789C12.1188 12.2789 9.22625 15.1797 9.22625 18.7348C9.22625 22.2976 12.1264 25.1897 15.6816 25.1897C19.2363 25.1897 22.1365 22.2976 22.1365 18.7348ZM11.713 18.7348C11.713 16.5516 13.4903 14.7738 15.6735 14.7738C17.8563 14.7738 19.6341 16.5516 19.6341 18.7348C19.6341 20.9175 17.8563 22.6949 15.6735 22.6949C13.4903 22.6949 11.713 20.9175 11.713 18.7348ZM15.0886 42.786H9.75601V35.1068C9.75633 34.9736 9.73034 34.8417 9.67954 34.7186C9.62874 34.5955 9.55412 34.4836 9.45997 34.3894C9.36582 34.2952 9.25399 34.2206 9.1309 34.1697C9.00781 34.1188 8.87589 34.0928 8.74271 34.093C8.6095 34.0928 8.47755 34.1188 8.35443 34.1696C8.23131 34.2205 8.11944 34.2951 8.02526 34.3893C7.93107 34.4835 7.85642 34.5954 7.80559 34.7185C7.75475 34.8417 7.72874 34.9736 7.72905 35.1068V42.786H5.4605C5.35953 42.786 5.25002 42.708 5.25002 42.5754V35.0754C5.25002 31.7469 7.96295 29.033 11.2919 29.033H19.9456C21.1547 29.033 22.2303 29.3689 23.2359 30.0544C23.4542 30.2025 23.6962 30.2727 23.9377 30.2727C24.3355 30.2727 24.7251 30.0858 24.9667 29.7275C25.3568 29.1584 25.2086 28.3861 24.6394 27.9964C23.2279 27.03 21.6458 26.5387 19.9457 26.5387H11.2919C6.58283 26.5387 2.75525 30.3668 2.75525 35.0754V42.5754C2.75525 44.0645 3.97184 45.2813 5.4605 45.2813H15.0886C15.7749 45.2813 16.3366 44.7195 16.3366 44.0331C16.3366 43.3471 15.7749 42.786 15.0886 42.786ZM37.7297 32.573C41.0037 32.573 43.6699 29.9062 43.6699 26.6322C43.6699 23.3575 41.0037 20.6918 37.7297 20.6918C34.455 20.6918 31.7883 23.3576 31.7883 26.632C31.7883 29.9062 34.455 32.573 37.7297 32.573ZM37.7297 23.186C39.6317 23.186 41.1753 24.73 41.1753 26.6322C41.1753 28.5342 39.6317 30.0783 37.7297 30.0783C35.8275 30.0783 34.2831 28.5344 34.2831 26.6322C34.2831 24.73 35.8275 23.186 37.7297 23.186ZM47.069 36.0887C45.619 34.6076 43.6781 33.7972 41.5964 33.7972H33.6205C33.4261 33.7891 33.1993 33.7891 32.9424 33.8201C32.2561 33.8982 31.7731 34.5223 31.8512 35.2079C31.9288 35.8395 32.4667 36.3073 33.0907 36.3073C33.1374 36.3073 33.1917 36.3073 33.2389 36.2992C33.3165 36.2916 33.4337 36.2916 33.5657 36.2916H41.5887C42.9916 36.2916 44.3016 36.8374 45.2759 37.835C46.2505 38.8335 46.7884 40.174 46.7884 41.6088V48.3833C46.7884 48.4229 46.7731 48.4463 46.7259 48.4463H45.2759V41.6403C45.2759 41.0787 44.8238 40.6266 44.2626 40.6266C43.7014 40.6266 43.2494 41.0787 43.2494 41.6403V48.4463H37.6439C36.9573 48.4463 36.3958 49.0074 36.3958 49.6933C36.3958 50.3799 36.9575 50.9405 37.6439 50.9405H46.7259C48.1375 50.9405 49.2836 49.7948 49.2836 48.3833V41.6089C49.2913 39.5114 48.5037 37.5544 47.069 36.0887Z" fill="#0074D9"/>
<path d="M20.8585 36.0887C20.8585 38.8488 23.1037 41.0863 25.8551 41.0863C28.6153 41.0863 30.8527 38.8411 30.8527 36.0887C30.8527 33.3289 28.6076 31.092 25.8551 31.092C23.096 31.092 20.8585 33.3366 20.8585 36.0887ZM25.8551 33.5867C27.2352 33.5867 28.3585 34.709 28.3585 36.0887C28.3585 37.4687 27.2353 38.592 25.8551 38.592C24.4755 38.592 23.3532 37.4688 23.3532 36.0887C23.3532 34.709 24.4755 33.5867 25.8551 33.5867ZM33.4647 43.9474C32.2561 42.7079 30.6346 42.03 28.9039 42.03H22.6749C19.0883 42.03 16.1724 44.9454 16.1724 48.5315V53.9427C16.1724 55.2132 17.2099 56.2497 18.4804 56.2497H33.0283C34.2832 56.2497 35.3045 55.2132 35.3045 53.9427V48.5315C35.3207 46.7932 34.6575 45.1641 33.4647 43.9474ZM22.6825 44.5242H28.9115C29.9643 44.5242 30.9547 44.9377 31.6874 45.6937C32.4201 46.4503 32.8254 47.4564 32.8254 48.5315V53.7555H32.077V48.5635C32.0773 48.4303 32.0513 48.2983 32.0005 48.1752C31.9496 48.0521 31.875 47.9402 31.7808 47.846C31.6866 47.7518 31.5747 47.6771 31.4516 47.6263C31.3285 47.5754 31.1965 47.5494 31.0633 47.5497C30.9302 47.5494 30.7982 47.5755 30.6751 47.6264C30.5521 47.6772 30.4402 47.7519 30.3461 47.8461C30.2519 47.9403 30.1773 48.0522 30.1265 48.1753C30.0757 48.2984 30.0497 48.4303 30.05 48.5635V53.7555H21.8403V48.5635C21.8403 48.0018 21.3882 47.5497 20.827 47.5497C20.2657 47.5497 19.8133 48.0018 19.8133 48.5635V53.7555H18.6752V48.5315C18.6752 46.3179 20.4682 44.5242 22.6825 44.5242ZM50.5937 13.8696L43.327 10.2915V2.12855C43.327 0.935614 42.3916 0 41.1986 0H36.061C34.8682 0 33.9331 0.935613 33.9331 2.12842V5.68356L26.6275 2.12842C25.8872 1.76976 25.0449 1.76976 24.3042 2.12842L0.697363 13.6901C0.0423603 14.0102 -0.23069 14.8052 0.0889458 15.4602C0.199054 15.6825 0.369075 15.8697 0.579848 16.0006C0.790621 16.1315 1.03377 16.2009 1.28188 16.201C1.47663 16.201 1.6792 16.1538 1.86688 16.0681L25.4659 4.50648L34.6657 8.98918C34.6809 8.99723 34.6966 9.00491 34.7119 9.01248C34.7199 9.01248 34.7276 9.02016 34.7357 9.02016C34.7666 9.03589 34.8062 9.04345 34.8371 9.05967C34.8448 9.05967 34.8524 9.06735 34.8601 9.06735C34.8996 9.07491 34.9305 9.09065 34.9696 9.09821H34.9853C35.0243 9.10589 35.063 9.11345 35.1101 9.11345C35.1564 9.12162 35.1958 9.12162 35.2425 9.12162C35.2812 9.12162 35.3282 9.12162 35.3669 9.11345H35.3984C35.4293 9.11345 35.4688 9.10589 35.4998 9.09821H35.5226C35.5621 9.09065 35.5931 9.0826 35.6246 9.07504C35.6398 9.06735 35.6556 9.06735 35.6631 9.05967C35.687 9.05113 35.7103 9.04345 35.7332 9.03589C35.749 9.02821 35.757 9.02821 35.7727 9.02004C35.8037 9.00491 35.8352 8.98918 35.8662 8.97345C35.8737 8.9654 35.8814 8.9654 35.8975 8.95772C35.9209 8.94248 35.9519 8.92674 35.9752 8.9115C35.9832 8.90296 35.9909 8.90296 35.9985 8.89528C36.0609 8.84906 36.1234 8.80199 36.1777 8.74723C36.1853 8.73955 36.1853 8.73955 36.1938 8.73199C36.2168 8.70857 36.2401 8.67711 36.2638 8.65382C36.2638 8.64613 36.2715 8.64613 36.2715 8.63857C36.2948 8.60711 36.3182 8.57613 36.342 8.5443C36.342 8.53662 36.3496 8.53662 36.3496 8.52894C36.3648 8.50577 36.3806 8.47467 36.3959 8.45089C36.4035 8.43564 36.412 8.42796 36.4197 8.41223C36.4273 8.40467 36.4273 8.39662 36.4354 8.38845C36.443 8.38089 36.443 8.3732 36.443 8.36564C36.4507 8.34223 36.4663 8.31845 36.474 8.28747C36.482 8.27223 36.4902 8.2565 36.4902 8.24028C36.4977 8.21747 36.5054 8.19406 36.513 8.17028C36.5207 8.14698 36.5207 8.13174 36.5289 8.10784C36.5364 8.08455 36.5364 8.0693 36.544 8.04601C36.5525 8.02211 36.5525 7.99881 36.5525 7.97589C36.5525 7.95979 36.5602 7.93637 36.5602 7.92113C36.5602 7.88967 36.5602 7.86625 36.5678 7.8354V2.64294H40.6684V11.1409C40.6684 11.1648 40.6684 11.1958 40.6761 11.2186C40.6761 11.2344 40.6761 11.2581 40.6841 11.2735C40.6841 11.2966 40.6918 11.3205 40.6918 11.3435C40.6918 11.3668 40.6998 11.3905 40.7075 11.4063C40.7156 11.4215 40.7156 11.4449 40.7233 11.4607C40.7308 11.4839 40.7385 11.5072 40.7465 11.5311C40.7542 11.5464 40.7542 11.5621 40.7618 11.5774C40.7703 11.6011 40.778 11.6244 40.7933 11.6474C40.8013 11.6631 40.809 11.6793 40.8166 11.6946C40.8242 11.7177 40.84 11.7407 40.848 11.7569C40.8557 11.7727 40.8714 11.7955 40.879 11.8113C40.8867 11.8274 40.9023 11.8503 40.91 11.866C40.9262 11.8888 40.9414 11.905 40.9572 11.9283C40.9647 11.9437 40.98 11.9593 40.9885 11.9674C41.0037 11.9908 41.0195 12.006 41.0424 12.0294C41.0505 12.0455 41.0662 12.0532 41.0744 12.0608C41.0896 12.0766 41.1129 12.0918 41.1281 12.1157C41.1444 12.1314 41.1596 12.139 41.1676 12.1542C41.1829 12.1699 41.2067 12.1775 41.2225 12.1937C41.2376 12.209 41.2611 12.2166 41.2762 12.2324C41.2925 12.2399 41.3078 12.2476 41.3235 12.2637C41.3468 12.2791 41.3701 12.2871 41.3935 12.3024C41.4011 12.3024 41.4011 12.3099 41.4092 12.3099L49.4156 16.2558C49.6034 16.3492 49.8059 16.3953 50.0006 16.3953C50.4917 16.3953 50.96 16.1229 51.1934 15.6546C51.5207 14.992 51.2483 14.1969 50.5937 13.8696Z" fill="#0074D9"/>
</g>
<defs>
<clipPath id="clip0_916_1461">
<rect width="60" height="60" fill="white"/>
</clipPath>
</defs>
</svg>
