<svg width="60" height="60" viewBox="0 0 60 60" fill="none" xmlns="http://www.w3.org/2000/svg">
<path d="M1.36594 38.2875C1.49739 38.3724 1.64801 38.4231 1.80407 38.4349C1.96013 38.4467 2.11665 38.4192 2.25938 38.355L4.6875 37.2628V40.3125C4.6875 40.5611 4.78627 40.7996 4.96209 40.9754C5.1379 41.1512 5.37636 41.25 5.625 41.25C5.75897 41.2504 5.89141 41.2216 6.01313 41.1656L7.5 40.4897V51.5625C7.5 51.8111 7.59877 52.0496 7.77459 52.2254C7.9504 52.4012 8.18886 52.5 8.4375 52.5H51.5625C51.8111 52.5 52.0496 52.4012 52.2254 52.2254C52.4012 52.0496 52.5 51.8111 52.5 51.5625V20.0353L57.5756 17.7281C57.6903 17.676 57.7933 17.6013 57.8785 17.5084C57.9637 17.4156 58.0293 17.3066 58.0714 17.1878C58.1135 17.0691 58.1312 16.943 58.1235 16.8173C58.1158 16.6915 58.0828 16.5686 58.0266 16.4559L56.7188 13.8468L58.5066 13.0425C58.6218 12.9907 58.7254 12.9162 58.8112 12.8234C58.8969 12.7305 58.963 12.6214 59.0055 12.5024C59.0479 12.3833 59.0659 12.257 59.0583 12.1309C59.0507 12.0047 59.0177 11.8815 58.9613 11.7684L57.0863 8.01841C56.9781 7.80301 56.7911 7.63754 56.5642 7.55636C56.3372 7.47518 56.0877 7.48453 55.8675 7.58247L1.4925 31.9575C1.32737 32.0313 1.18712 32.1512 1.08864 32.3029C0.990168 32.4547 0.937678 32.6316 0.9375 32.8125V37.5C0.937458 37.6566 0.976646 37.8107 1.05149 37.9483C1.12633 38.0858 1.23443 38.2024 1.36594 38.2875ZM11.25 50.625H9.375V39.6375L11.25 38.7853V50.625ZM20.625 50.625H13.125V37.9331L20.625 34.5234V50.625ZM24.375 50.625H22.5V33.6712L24.375 32.819V50.625ZM33.75 50.625H26.25V31.9687L33.75 28.56V50.625ZM37.5 50.625H35.625V27.7059L37.5 26.8537V50.625ZM46.875 50.625H39.375V26.0006L46.875 22.5937V50.625ZM50.625 50.625H48.75V21.7397L50.625 20.8875V50.625ZM6.5625 38.8565V36.419L55.0106 14.6175L55.9144 16.425L6.5625 38.8565ZM2.8125 33.419L55.8131 9.66091L56.85 11.7337L2.8125 36.0497V33.419Z" fill="#0074D9"/>
</svg>
