<svg width="60" height="60" viewBox="0 0 60 60" fill="none" xmlns="http://www.w3.org/2000/svg">
<path d="M28.5959 41.5111C27.7019 41.5111 26.9789 40.7881 26.9789 39.8941C26.9789 37.7791 27.2789 35.9521 27.8759 34.4161C28.3139 33.2581 29.0249 32.0911 30.0029 30.9121C30.7229 30.0541 32.0129 28.8001 33.8789 27.1561C35.7449 25.5091 36.9569 24.1981 37.5179 23.2201C38.0789 22.2421 38.3549 21.1741 38.3549 20.0161C38.3549 17.9191 37.5359 16.0801 35.9009 14.4931C34.2659 12.9061 32.2589 12.1141 29.8829 12.1141C27.5879 12.1141 25.6709 12.8341 24.1349 14.2711C23.0129 15.3211 22.1699 16.8031 21.6119 18.7171C21.2279 20.0311 19.9469 20.8711 18.5879 20.7091C16.8659 20.5051 15.7319 18.8011 16.2239 17.1361C16.9799 14.5771 18.2459 12.5161 20.0189 10.9501C22.4819 8.76905 25.7399 7.68005 29.7929 7.68005C34.0829 7.68005 37.5059 8.84705 40.0619 11.1841C42.6179 13.5211 43.8929 16.3441 43.8929 19.6561C43.8929 21.5731 43.4429 23.3401 42.5459 24.9541C41.6489 26.5711 39.8909 28.5361 37.2779 30.8521C35.5229 32.4091 34.3739 33.5581 33.8339 34.2961C33.2939 35.0341 32.8949 35.8831 32.6369 36.8401C32.4449 37.5511 32.3129 38.5951 32.2409 39.9661C32.1959 40.8301 31.4789 41.5081 30.6149 41.5081H28.5959V41.5111ZM26.6789 49.2511C26.6789 47.5561 28.0529 46.1821 29.7479 46.1821C31.4429 46.1821 32.8169 47.5561 32.8169 49.2511C32.8169 50.9461 31.4429 52.3201 29.7479 52.3201C28.0529 52.3201 26.6789 50.9461 26.6789 49.2511Z" fill="#0074D9"/>
</svg>
