<svg width="60" height="60" viewBox="0 0 60 60" fill="none" xmlns="http://www.w3.org/2000/svg">
<path d="M30.2373 41.0241C30.5433 41.0241 30.8368 40.9026 31.0532 40.6862C31.2696 40.4698 31.3912 40.1763 31.3912 39.8703V34.3648C31.3912 34.0588 31.2696 33.7653 31.0532 33.5489C30.8368 33.3325 30.5433 33.2109 30.2373 33.2109C29.9313 33.2109 29.6378 33.3325 29.4214 33.5489C29.205 33.7653 29.0835 34.0588 29.0835 34.3648V39.8703C29.0835 40.1763 29.205 40.4698 29.4214 40.6862C29.6378 40.9026 29.9313 41.0241 30.2373 41.0241ZM30.2373 16.4835C30.5433 16.4835 30.8368 16.3619 31.0532 16.1455C31.2696 15.9291 31.3912 15.6356 31.3912 15.3296V9.8505C31.3912 9.54448 31.2696 9.251 31.0532 9.03461C30.8368 8.81822 30.5433 8.69666 30.2373 8.69666C29.9313 8.69666 29.6378 8.81822 29.4214 9.03461C29.205 9.251 29.0835 9.54448 29.0835 9.8505V15.356C29.0904 15.6574 29.215 15.9442 29.4306 16.1549C29.6463 16.3656 29.9358 16.4835 30.2373 16.4835ZM30.2373 28.767C30.5433 28.767 30.8368 28.6454 31.0532 28.429C31.2696 28.2126 31.3912 27.9192 31.3912 27.6131V22.1076C31.3912 21.8016 31.2696 21.5081 31.0532 21.2918C30.8368 21.0754 30.5433 20.9538 30.2373 20.9538C29.9313 20.9538 29.6378 21.0754 29.4214 21.2918C29.205 21.5081 29.0835 21.8016 29.0835 22.1076V27.6131C29.0835 27.9192 29.205 28.2126 29.4214 28.429C29.6378 28.6454 29.9313 28.767 30.2373 28.767ZM38.4197 16.4835C38.7189 16.4801 39.0052 16.3607 39.218 16.1503C39.4308 15.94 39.5536 15.6552 39.5604 15.356V9.8505C39.5604 9.54448 39.4388 9.251 39.2224 9.03461C39.0061 8.81822 38.7126 8.69666 38.4065 8.69666C38.1005 8.69666 37.807 8.81822 37.5907 9.03461C37.3743 9.251 37.2527 9.54448 37.2527 9.8505V15.356C37.2596 15.6597 37.3861 15.9485 37.6045 16.1595C37.823 16.3706 38.116 16.487 38.4197 16.4835ZM38.4197 28.767C38.7235 28.7635 39.0136 28.6404 39.2271 28.4244C39.4407 28.2084 39.5604 27.9169 39.5604 27.6131V22.1076C39.5604 21.8016 39.4388 21.5081 39.2224 21.2918C39.0061 21.0754 38.7126 20.9538 38.4065 20.9538C38.1005 20.9538 37.807 21.0754 37.5907 21.2918C37.3743 21.5081 37.2527 21.8016 37.2527 22.1076V27.6131C37.2527 27.7658 37.283 27.9169 37.3418 28.0578C37.4006 28.1986 37.4868 28.3264 37.5953 28.4337C37.7038 28.541 37.8326 28.6258 37.9741 28.683C38.1156 28.7402 38.2671 28.7687 38.4197 28.767ZM38.4197 41.0241C38.7235 41.0207 39.0136 40.8976 39.2271 40.6815C39.4407 40.4655 39.5604 40.174 39.5604 39.8703V34.3648C39.5604 34.0588 39.4388 33.7653 39.2224 33.5489C39.0061 33.3325 38.7126 33.2109 38.4065 33.2109C38.1005 33.2109 37.807 33.3325 37.5907 33.5489C37.3743 33.7653 37.2527 34.0588 37.2527 34.3648V39.8703C37.2527 40.0229 37.283 40.1741 37.3418 40.3149C37.4006 40.4558 37.4868 40.5836 37.5953 40.6909C37.7038 40.7982 37.8326 40.8829 37.9741 40.9401C38.1156 40.9973 38.2671 41.0259 38.4197 41.0241ZM51.9428 45.4087H52.9186C53.2247 45.4087 53.5181 45.2872 53.7345 45.0708C53.9509 44.8544 54.0725 44.5609 54.0725 44.2549C54.0725 43.9489 53.9509 43.6554 53.7345 43.439C53.5181 43.2226 53.2247 43.1011 52.9186 43.1011H51.9428C51.6368 43.1011 51.3433 43.2226 51.1269 43.439C50.9105 43.6554 50.789 43.9489 50.789 44.2549C50.789 44.5609 50.9105 44.8544 51.1269 45.0708C51.3433 45.2872 51.6368 45.4087 51.9428 45.4087ZM51.9428 38.8022H52.9186C53.2247 38.8022 53.5181 38.6806 53.7345 38.4642C53.9509 38.2478 54.0725 37.9543 54.0725 37.6483C54.0725 37.3423 53.9509 37.0488 53.7345 36.8324C53.5181 36.616 53.2247 36.4945 52.9186 36.4945H51.9428C51.6368 36.4945 51.3433 36.616 51.1269 36.8324C50.9105 37.0488 50.789 37.3423 50.789 37.6483C50.789 37.9543 50.9105 38.2478 51.1269 38.4642C51.3433 38.6806 51.6368 38.8022 51.9428 38.8022ZM51.9428 51.956H52.9186C53.2247 51.956 53.5181 51.8344 53.7345 51.618C53.9509 51.4017 54.0725 51.1082 54.0725 50.8022C54.0725 50.4961 53.9509 50.2026 53.7345 49.9863C53.5181 49.7699 53.2247 49.6483 52.9186 49.6483H51.9428C51.6368 49.6483 51.3433 49.7699 51.1269 49.9863C50.9105 50.2026 50.789 50.4961 50.789 50.8022C50.789 51.1082 50.9105 51.4017 51.1269 51.618C51.3433 51.8344 51.6368 51.956 51.9428 51.956ZM16.3384 32.2549H17.3076C17.6137 32.2549 17.9072 32.1333 18.1235 31.9169C18.3399 31.7006 18.4615 31.4071 18.4615 31.1011C18.4615 30.795 18.3399 30.5015 18.1235 30.2852C17.9072 30.0688 17.6137 29.9472 17.3076 29.9472H16.3384C16.0324 29.9472 15.7389 30.0688 15.5225 30.2852C15.3061 30.5015 15.1846 30.795 15.1846 31.1011C15.1846 31.4071 15.3061 31.7006 15.5225 31.9169C15.7389 32.1333 16.0324 32.2549 16.3384 32.2549ZM16.3384 25.6483H17.3076C17.6137 25.6483 17.9072 25.5267 18.1235 25.3104C18.3399 25.094 18.4615 24.8005 18.4615 24.4945C18.4615 24.1884 18.3399 23.895 18.1235 23.6786C17.9072 23.4622 17.6137 23.3406 17.3076 23.3406H16.3384C16.0324 23.3406 15.7389 23.4622 15.5225 23.6786C15.3061 23.895 15.1846 24.1884 15.1846 24.4945C15.1846 24.8005 15.3061 25.094 15.5225 25.3104C15.7389 25.5267 16.0324 25.6483 16.3384 25.6483ZM16.3384 38.8022H17.3076C17.6137 38.8022 17.9072 38.6806 18.1235 38.4642C18.3399 38.2478 18.4615 37.9543 18.4615 37.6483C18.4615 37.3423 18.3399 37.0488 18.1235 36.8324C17.9072 36.616 17.6137 36.4945 17.3076 36.4945H16.3384C16.0324 36.4945 15.7389 36.616 15.5225 36.8324C15.3061 37.0488 15.1846 37.3423 15.1846 37.6483C15.1846 37.9543 15.3061 38.2478 15.5225 38.4642C15.7389 38.6806 16.0324 38.8022 16.3384 38.8022Z" fill="#0074D9"/>
<path d="M58.378 27.0725H47.5911V2.16923C47.5911 1.86321 47.4696 1.56972 47.2532 1.35333C47.0368 1.13695 46.7433 1.01538 46.4373 1.01538H22.2197C21.9194 1.02396 21.6344 1.14931 21.4251 1.36477C21.2157 1.58024 21.0987 1.86884 21.0988 2.16923V16.5758H11.4263C11.1203 16.5758 10.8268 16.6974 10.6104 16.9138C10.394 17.1302 10.2725 17.4236 10.2725 17.7297V32.0769C10.2725 32.3829 10.394 32.6764 10.6104 32.8928C10.8268 33.1092 11.1203 33.2308 11.4263 33.2308C11.7323 33.2308 12.0258 33.1092 12.2422 32.8928C12.4586 32.6764 12.5802 32.3829 12.5802 32.0769V18.8901H21.0988V57.4945H12.5274C12.2214 57.4945 11.9279 57.6161 11.7115 57.8325C11.4951 58.0488 11.3736 58.3423 11.3736 58.6483C11.3736 58.9544 11.4951 59.2479 11.7115 59.4642C11.9279 59.6806 12.2214 59.8022 12.5274 59.8022H54.4351C55.7829 59.8005 57.0753 59.2657 58.0301 58.3145C58.985 57.3633 59.5248 56.073 59.5318 54.7253V28.2264C59.5318 27.9204 59.4102 27.6269 59.1938 27.4105C58.9775 27.1941 58.684 27.0725 58.378 27.0725ZM31.3911 57.4945V48.3099H37.2659V57.4945H31.3911ZM45.2835 57.4945H39.5604V47.156C39.5604 46.85 39.4388 46.5565 39.2224 46.3401C39.006 46.1238 38.7125 46.0022 38.4065 46.0022H30.2373C29.9313 46.0022 29.6378 46.1238 29.4214 46.3401C29.205 46.5565 29.0835 46.85 29.0835 47.156V57.4945H23.3736V3.2967H45.2835V57.4945ZM57.2241 54.7253C57.2241 55.4656 56.9305 56.1756 56.4076 56.6997C55.8848 57.2238 55.1754 57.5191 54.4351 57.5209H47.5977V29.3802H57.2241V54.7253Z" fill="#0074D9"/>
<path d="M14.6967 43.833C14.6967 39.1319 8.53841 35.5846 8.27467 35.4396C8.10249 35.3394 7.90684 35.2866 7.70764 35.2866C7.50843 35.2866 7.31279 35.3394 7.14061 35.4396C6.87687 35.5846 0.718628 39.1319 0.718628 43.833C0.718628 48.066 3.2505 51.5802 6.55379 52.2528V58.6813C6.55379 58.9874 6.67536 59.2808 6.89175 59.4972C7.10813 59.7136 7.40162 59.8352 7.70764 59.8352C8.01366 59.8352 8.30714 59.7136 8.52353 59.4972C8.73992 59.2808 8.86148 58.9874 8.86148 58.6813V52.2857C12.1648 51.5802 14.6967 48.066 14.6967 43.833ZM3.02632 43.833C3.02632 41.3605 6.01313 38.8945 7.70764 37.7934C9.40214 38.8945 12.389 41.3473 12.389 43.833C12.389 46.7407 10.8857 49.1868 8.86148 49.8726V47.1561C8.86148 46.85 8.73992 46.5566 8.52353 46.3402C8.30714 46.1238 8.01366 46.0022 7.70764 46.0022C7.40162 46.0022 7.10813 46.1238 6.89175 46.3402C6.67536 46.5566 6.55379 46.85 6.55379 47.1561V49.8726C4.52962 49.1868 3.02632 46.7473 3.02632 43.833Z" fill="#0074D9"/>
</svg>
