<svg width="60" height="60" viewBox="0 0 60 60" fill="none" xmlns="http://www.w3.org/2000/svg">
<path d="M56.2922 57.9776H54.6069V5.05617C54.6069 4.78798 54.5003 4.53078 54.3107 4.34114C54.121 4.1515 53.8638 4.04496 53.5956 4.04496H34.7192C34.5864 4.04495 34.4549 4.07109 34.3322 4.1219C34.2095 4.17272 34.098 4.2472 34.0041 4.3411C33.9102 4.43501 33.8357 4.54649 33.7849 4.66918C33.7341 4.79187 33.708 4.92337 33.708 5.05617V9.43816H31.6856V5.05617C31.6856 4.78798 31.579 4.53078 31.3894 4.34114C31.1997 4.1515 30.9425 4.04496 30.6744 4.04496H26.2922V1.01121C26.2922 0.452578 25.8394 0 25.281 0C24.7226 0 24.2698 0.452578 24.2698 1.01121V4.04496H19.8878C19.755 4.04495 19.6235 4.07109 19.5008 4.1219C19.3781 4.17272 19.2667 4.2472 19.1728 4.3411C19.0789 4.43501 19.0044 4.54649 18.9536 4.66918C18.9027 4.79187 18.8766 4.92337 18.8766 5.05617V9.43816H15.8429C15.7101 9.43815 15.5786 9.46429 15.4559 9.51511C15.3332 9.56592 15.2217 9.6404 15.1278 9.73431C15.0339 9.82821 14.9594 9.93969 14.9086 10.0624C14.8578 10.1851 14.8316 10.3166 14.8317 10.4494V18.8763H6.4047C6.2719 18.8763 6.1404 18.9025 6.01771 18.9533C5.89502 19.0041 5.78354 19.0786 5.68963 19.1725C5.59573 19.2664 5.52125 19.3779 5.47043 19.5005C5.41962 19.6232 5.39348 19.7547 5.39349 19.8875V57.9775H3.70787C3.14935 57.9775 2.69666 58.43 2.69666 58.9887C2.69666 59.5473 3.14947 60 3.70787 60H56.2922C56.8508 60 57.3035 59.5474 57.3035 58.9888C57.3035 58.4302 56.8506 57.9776 56.2922 57.9776ZM20.8989 6.06738H29.6629V9.43816H20.8989V6.06738ZM17.5281 57.9776H16.854V56.2922C16.854 55.7336 16.4011 55.281 15.8427 55.281C15.2843 55.281 14.8315 55.7336 14.8315 56.2922V57.9776H14.1574V54.6068H17.5281V57.9776ZM24.2697 32.0224V57.9776H19.5506V53.5956C19.5506 53.3274 19.444 53.0702 19.2544 52.8806C19.0647 52.6909 18.8075 52.5844 18.5393 52.5844H13.1461C13.0133 52.5844 12.8818 52.6105 12.7592 52.6613C12.6365 52.7121 12.525 52.7866 12.4311 52.8805C12.3372 52.9744 12.2627 53.0859 12.2119 53.2086C12.1611 53.3313 12.1349 53.4628 12.1349 53.5956V57.9776H7.4158V20.8989H24.2697V32.0224ZM25.2809 18.8764H16.854V11.4607H33.7079V31.0112H26.2922V27.6404H29.326C29.8845 27.6404 30.3372 27.1879 30.3372 26.6292C30.3372 26.0706 29.8844 25.618 29.326 25.618H26.2922V22.2472H29.326C29.8845 22.2472 30.3372 21.7946 30.3372 21.236C30.3372 20.6774 29.8844 20.2248 29.326 20.2248H26.2922V19.8878C26.2923 19.755 26.2661 19.6234 26.2153 19.5007C26.1645 19.378 26.09 19.2665 25.9961 19.1726C25.9022 19.0787 25.7907 19.0042 25.6679 18.9534C25.5452 18.9026 25.4137 18.8764 25.2809 18.8764ZM43.1461 57.9776H26.2922V33.0337H43.1461V57.9776ZM52.5843 57.9776H45.1686V30.6741C45.1686 30.1154 44.7158 29.6629 44.1574 29.6629C43.599 29.6629 43.1461 30.1154 43.1461 30.6741V31.0111H41.1237V30.6741C41.1237 30.1154 40.6709 29.6629 40.1125 29.6629C39.5541 29.6629 39.1013 30.1154 39.1013 30.6741V31.0111H35.7305V6.06738H52.5844V57.9776H52.5843Z" fill="#0074D9"/>
<path d="M30.6743 55.9552C30.9425 55.9552 31.1996 55.8486 31.3893 55.659C31.5789 55.4694 31.6855 55.2122 31.6855 54.944V36.0677C31.6855 35.5091 31.2327 35.0565 30.6743 35.0565C30.1159 35.0565 29.6631 35.5091 29.6631 36.0677V54.9441C29.6631 55.0769 29.6892 55.2084 29.74 55.3311C29.7909 55.4538 29.8654 55.5652 29.9593 55.6591C30.0532 55.753 30.1646 55.8275 30.2873 55.8783C30.41 55.9291 30.5415 55.9552 30.6743 55.9552ZM34.7192 55.9552C34.9874 55.9552 35.2446 55.8486 35.4342 55.659C35.6239 55.4694 35.7304 55.2122 35.7304 54.944V36.0677C35.7304 35.5091 35.2776 35.0565 34.7192 35.0565C34.1608 35.0565 33.708 35.5091 33.708 36.0677V54.9441C33.708 55.0769 33.7342 55.2084 33.785 55.3311C33.8358 55.4538 33.9103 55.5652 34.0042 55.6591C34.0981 55.753 34.2096 55.8275 34.3323 55.8783C34.455 55.9291 34.5864 55.9552 34.7192 55.9552ZM38.7641 55.9552C39.0323 55.9552 39.2894 55.8486 39.4791 55.659C39.6687 55.4694 39.7753 55.2122 39.7753 54.944V36.0677C39.7753 35.5091 39.3225 35.0565 38.7641 35.0565C38.2057 35.0565 37.7529 35.5091 37.7529 36.0677V54.9441C37.7529 55.2123 37.8595 55.4695 38.0491 55.6591C38.2387 55.8487 38.4959 55.9552 38.7641 55.9552ZM40.1124 12.8089C40.2452 12.8089 40.3767 12.7828 40.4994 12.732C40.6221 12.6811 40.7336 12.6067 40.8275 12.5128C40.9214 12.4189 40.9959 12.3074 41.0467 12.1847C41.0975 12.062 41.1237 11.9305 41.1236 11.7977V10.4494C41.1236 9.89081 40.6708 9.43823 40.1124 9.43823C39.554 9.43823 39.1012 9.89081 39.1012 10.4494V11.7978C39.1012 11.9306 39.1274 12.0621 39.1782 12.1848C39.229 12.3074 39.3035 12.4189 39.3974 12.5128C39.4913 12.6067 39.6028 12.6812 39.7255 12.732C39.8482 12.7828 39.9797 12.8089 40.1124 12.8089ZM44.1574 12.8089C44.2902 12.8089 44.4217 12.7828 44.5444 12.732C44.6671 12.6811 44.7786 12.6067 44.8725 12.5128C44.9664 12.4189 45.0409 12.3074 45.0917 12.1847C45.1425 12.062 45.1686 11.9305 45.1686 11.7977V10.4494C45.1686 9.89081 44.7158 9.43823 44.1574 9.43823C43.599 9.43823 43.1462 9.89081 43.1462 10.4494V11.7978C43.1462 11.9306 43.1723 12.0621 43.2232 12.1848C43.274 12.3074 43.3485 12.4189 43.4424 12.5128C43.5363 12.6067 43.6478 12.6812 43.7704 12.732C43.8931 12.7828 44.0246 12.8089 44.1574 12.8089ZM48.2024 12.8089C48.3352 12.8089 48.4667 12.7828 48.5894 12.732C48.712 12.6811 48.8235 12.6067 48.9174 12.5128C49.0113 12.4189 49.0858 12.3074 49.1366 12.1847C49.1874 12.062 49.2136 11.9305 49.2136 11.7977V10.4494C49.2136 9.89081 48.7608 9.43823 48.2024 9.43823C47.644 9.43823 47.1912 9.89081 47.1912 10.4494V11.7978C47.1912 11.9306 47.2173 12.0621 47.2681 12.1848C47.3189 12.3074 47.3934 12.4189 47.4873 12.5128C47.5812 12.6067 47.6927 12.6812 47.8154 12.732C47.9381 12.7828 48.0696 12.8089 48.2024 12.8089ZM40.1124 19.5505C40.2452 19.5505 40.3767 19.5243 40.4994 19.4735C40.6221 19.4227 40.7336 19.3482 40.8275 19.2543C40.9214 19.1604 40.9959 19.0489 41.0467 18.9262C41.0975 18.8035 41.1237 18.672 41.1236 18.5392V17.1909C41.1236 16.6323 40.6708 16.1797 40.1124 16.1797C39.554 16.1797 39.1012 16.6323 39.1012 17.1909V18.5392C39.1012 18.672 39.1274 18.8035 39.1782 18.9262C39.229 19.0489 39.3035 19.1604 39.3974 19.2543C39.4913 19.3482 39.6028 19.4227 39.7254 19.4735C39.8481 19.5243 39.9796 19.5505 40.1124 19.5505ZM44.1574 19.5505C44.2902 19.5505 44.4217 19.5243 44.5444 19.4735C44.6671 19.4227 44.7786 19.3482 44.8725 19.2543C44.9664 19.1604 45.0409 19.0489 45.0917 18.9262C45.1425 18.8035 45.1686 18.672 45.1686 18.5392V17.1909C45.1686 16.6323 44.7158 16.1797 44.1574 16.1797C43.599 16.1797 43.1462 16.6323 43.1462 17.1909V18.5392C43.1462 18.672 43.1723 18.8035 43.2231 18.9262C43.2739 19.0489 43.3484 19.1604 43.4423 19.2543C43.5362 19.3482 43.6477 19.4227 43.7704 19.4735C43.8931 19.5243 44.0246 19.5505 44.1574 19.5505ZM48.2024 19.5505C48.3352 19.5505 48.4667 19.5243 48.5894 19.4735C48.712 19.4227 48.8235 19.3482 48.9174 19.2543C49.0113 19.1604 49.0858 19.0489 49.1366 18.9262C49.1874 18.8035 49.2136 18.672 49.2136 18.5392V17.1909C49.2136 16.6323 48.7608 16.1797 48.2024 16.1797C47.644 16.1797 47.1912 16.6323 47.1912 17.1909V18.5392C47.1911 18.672 47.2173 18.8035 47.2681 18.9262C47.3189 19.0489 47.3934 19.1604 47.4873 19.2543C47.5812 19.3482 47.6927 19.4227 47.8154 19.4735C47.9381 19.5243 48.0696 19.5505 48.2024 19.5505ZM40.1124 26.2921C40.2452 26.2922 40.3767 26.266 40.4994 26.2152C40.6221 26.1644 40.7336 26.0899 40.8275 25.996C40.9214 25.9021 40.9959 25.7906 41.0467 25.6679C41.0975 25.5452 41.1237 25.4137 41.1236 25.2809V23.9326C41.1236 23.3739 40.6708 22.9214 40.1124 22.9214C39.554 22.9214 39.1012 23.3739 39.1012 23.9326V25.2809C39.1012 25.5491 39.2078 25.8063 39.3974 25.996C39.587 26.1856 39.8443 26.2921 40.1124 26.2921ZM44.1574 26.2921C44.2902 26.2922 44.4217 26.266 44.5444 26.2152C44.6671 26.1644 44.7786 26.0899 44.8725 25.996C44.9664 25.9021 45.0409 25.7906 45.0917 25.6679C45.1425 25.5452 45.1686 25.4137 45.1686 25.2809V23.9326C45.1686 23.3739 44.7158 22.9214 44.1574 22.9214C43.599 22.9214 43.1462 23.3739 43.1462 23.9326V25.2809C43.1462 25.5491 43.2527 25.8063 43.4424 25.996C43.632 26.1856 43.8892 26.2921 44.1574 26.2921ZM48.2024 26.2921C48.3352 26.2922 48.4667 26.266 48.5894 26.2152C48.712 26.1644 48.8235 26.0899 48.9174 25.996C49.0113 25.9021 49.0858 25.7906 49.1366 25.6679C49.1874 25.5452 49.2136 25.4137 49.2136 25.2809V23.9326C49.2136 23.3739 48.7608 22.9214 48.2024 22.9214C47.644 22.9214 47.1912 23.3739 47.1912 23.9326V25.2809C47.1912 25.5491 47.2977 25.8063 47.4873 25.996C47.677 26.1856 47.9342 26.2921 48.2024 26.2921ZM11.7978 28.9887C11.9306 28.9888 12.0621 28.9626 12.1848 28.9118C12.3075 28.861 12.419 28.7865 12.5129 28.6926C12.6068 28.5987 12.6813 28.4872 12.7321 28.3645C12.7829 28.2418 12.8091 28.1103 12.809 27.9775V26.6292C12.809 26.0705 12.3562 25.618 11.7978 25.618C11.2394 25.618 10.7866 26.0705 10.7866 26.6292V27.9775C10.7867 28.2457 10.8932 28.5029 11.0828 28.6925C11.2725 28.8822 11.5297 28.9887 11.7978 28.9887ZM15.8428 28.9887C15.9756 28.9888 16.1071 28.9626 16.2298 28.9118C16.3525 28.861 16.464 28.7865 16.5579 28.6926C16.6518 28.5987 16.7262 28.4872 16.7771 28.3645C16.8279 28.2418 16.854 28.1103 16.854 27.9775V26.6292C16.854 26.0705 16.4012 25.618 15.8428 25.618C15.2844 25.618 14.8316 26.0705 14.8316 26.6292V27.9775C14.8316 28.2457 14.9381 28.5029 15.1278 28.6926C15.3174 28.8822 15.5746 28.9887 15.8428 28.9887ZM19.8878 28.9887C20.0206 28.9888 20.1521 28.9626 20.2747 28.9118C20.3974 28.861 20.5089 28.7865 20.6028 28.6926C20.6967 28.5987 20.7712 28.4872 20.822 28.3645C20.8728 28.2418 20.899 28.1103 20.899 27.9775V26.6292C20.899 26.0705 20.4462 25.618 19.8878 25.618C19.3294 25.618 18.8765 26.0705 18.8765 26.6292V27.9775C18.8765 28.2457 18.9831 28.5029 19.1727 28.6926C19.3624 28.8822 19.6196 28.9887 19.8878 28.9887ZM11.7978 35.7303C11.9306 35.7303 12.0621 35.7042 12.1848 35.6534C12.3075 35.6025 12.419 35.5281 12.5129 35.4342C12.6068 35.3403 12.6813 35.2288 12.7321 35.1061C12.7829 34.9834 12.8091 34.8519 12.809 34.7191V33.3707C12.809 32.8121 12.3562 32.3595 11.7978 32.3595C11.2394 32.3595 10.7866 32.8121 10.7866 33.3707V34.7191C10.7867 34.9873 10.8932 35.2445 11.0828 35.4341C11.2725 35.6237 11.5297 35.7303 11.7978 35.7303ZM15.8428 35.7303C15.9756 35.7303 16.1071 35.7042 16.2298 35.6534C16.3525 35.6025 16.464 35.5281 16.5579 35.4342C16.6518 35.3403 16.7262 35.2288 16.7771 35.1061C16.8279 34.9834 16.854 34.8519 16.854 34.7191V33.3707C16.854 32.8121 16.4012 32.3595 15.8428 32.3595C15.2844 32.3595 14.8316 32.8121 14.8316 33.3707V34.7191C14.8316 34.9873 14.9381 35.2445 15.1278 35.4341C15.3174 35.6238 15.5746 35.7303 15.8428 35.7303ZM19.8878 35.7303C20.0206 35.7303 20.1521 35.7042 20.2747 35.6534C20.3974 35.6025 20.5089 35.5281 20.6028 35.4342C20.6967 35.3403 20.7712 35.2288 20.822 35.1061C20.8728 34.9834 20.899 34.8519 20.899 34.7191V33.3707C20.899 32.8121 20.4462 32.3595 19.8878 32.3595C19.3294 32.3595 18.8765 32.8121 18.8765 33.3707V34.7191C18.8765 34.9873 18.9831 35.2445 19.1727 35.4341C19.3624 35.6238 19.6196 35.7303 19.8878 35.7303ZM11.7978 42.4719C11.9306 42.4719 12.0621 42.4457 12.1848 42.3949C12.3075 42.3441 12.419 42.2696 12.5129 42.1757C12.6068 42.0818 12.6813 41.9703 12.7321 41.8476C12.7829 41.725 12.8091 41.5935 12.809 41.4607V40.1123C12.809 39.5537 12.3562 39.1011 11.7978 39.1011C11.2394 39.1011 10.7866 39.5537 10.7866 40.1123V41.4607C10.7866 41.5934 10.8128 41.7249 10.8636 41.8476C10.9144 41.9703 10.9889 42.0818 11.0828 42.1757C11.1767 42.2696 11.2882 42.3441 11.4109 42.3949C11.5335 42.4457 11.665 42.4719 11.7978 42.4719ZM15.8428 42.4719C15.9756 42.4719 16.1071 42.4457 16.2298 42.3949C16.3525 42.3441 16.464 42.2696 16.5579 42.1757C16.6518 42.0818 16.7262 41.9703 16.7771 41.8476C16.8279 41.725 16.854 41.5935 16.854 41.4607V40.1123C16.854 39.5537 16.4012 39.1011 15.8428 39.1011C15.2844 39.1011 14.8316 39.5537 14.8316 40.1123V41.4607C14.8316 41.5935 14.8577 41.725 14.9085 41.8476C14.9593 41.9703 15.0338 42.0818 15.1277 42.1757C15.2216 42.2696 15.3331 42.3441 15.4558 42.3949C15.5785 42.4457 15.71 42.4719 15.8428 42.4719ZM19.8878 42.4719C20.0206 42.4719 20.1521 42.4457 20.2747 42.3949C20.3974 42.3441 20.5089 42.2696 20.6028 42.1757C20.6967 42.0818 20.7712 41.9703 20.822 41.8476C20.8728 41.725 20.899 41.5935 20.899 41.4607V40.1123C20.899 39.5537 20.4462 39.1011 19.8878 39.1011C19.3294 39.1011 18.8765 39.5537 18.8765 40.1123V41.4607C18.8765 41.5935 18.9027 41.725 18.9535 41.8476C19.0043 41.9703 19.0788 42.0818 19.1727 42.1757C19.2666 42.2696 19.3781 42.3441 19.5008 42.3949C19.6235 42.4457 19.755 42.4719 19.8878 42.4719ZM11.7978 49.2134C11.9306 49.2134 12.0621 49.1873 12.1848 49.1365C12.3075 49.0857 12.419 49.0112 12.5129 48.9173C12.6068 48.8234 12.6813 48.7119 12.7321 48.5892C12.7829 48.4665 12.8091 48.335 12.809 48.2022V46.8539C12.809 46.2952 12.3562 45.8426 11.7978 45.8426C11.2394 45.8426 10.7866 46.2952 10.7866 46.8539V48.2022C10.7866 48.4704 10.8932 48.7276 11.0828 48.9172C11.2724 49.1069 11.5296 49.2134 11.7978 49.2134ZM15.8428 49.2134C15.9756 49.2134 16.1071 49.1873 16.2298 49.1365C16.3525 49.0857 16.464 49.0112 16.5579 48.9173C16.6518 48.8234 16.7262 48.7119 16.7771 48.5892C16.8279 48.4665 16.854 48.335 16.854 48.2022V46.8539C16.854 46.2952 16.4012 45.8426 15.8428 45.8426C15.2844 45.8426 14.8316 46.2952 14.8316 46.8539V48.2022C14.8316 48.335 14.8577 48.4665 14.9085 48.5892C14.9593 48.7119 15.0338 48.8234 15.1277 48.9173C15.2216 49.0112 15.3331 49.0857 15.4558 49.1365C15.5785 49.1873 15.71 49.2134 15.8428 49.2134ZM19.8878 49.2134C20.0206 49.2134 20.1521 49.1873 20.2747 49.1365C20.3974 49.0857 20.5089 49.0112 20.6028 48.9173C20.6967 48.8234 20.7712 48.7119 20.822 48.5892C20.8728 48.4665 20.899 48.335 20.899 48.2022V46.8539C20.899 46.2952 20.4462 45.8426 19.8878 45.8426C19.3294 45.8426 18.8765 46.2952 18.8765 46.8539V48.2022C18.8765 48.335 18.9027 48.4665 18.9535 48.5892C19.0043 48.7119 19.0788 48.8234 19.1727 48.9173C19.2666 49.0112 19.3781 49.0857 19.5008 49.1365C19.6235 49.1873 19.755 49.2134 19.8878 49.2134ZM48.2024 33.0337C48.3352 33.0337 48.4667 33.0076 48.5894 32.9568C48.712 32.9059 48.8235 32.8315 48.9174 32.7376C49.0113 32.6437 49.0858 32.5322 49.1366 32.4095C49.1874 32.2868 49.2136 32.1553 49.2136 32.0225V30.6741C49.2136 30.1155 48.7608 29.6629 48.2024 29.6629C47.644 29.6629 47.1912 30.1155 47.1912 30.6741V32.0225C47.1912 32.2907 47.2977 32.5479 47.4873 32.7375C47.677 32.9272 47.9342 33.0337 48.2024 33.0337ZM48.2024 39.7753C48.3352 39.7753 48.4667 39.7491 48.5894 39.6983C48.712 39.6475 48.8235 39.573 48.9174 39.4791C49.0113 39.3852 49.0858 39.2737 49.1366 39.151C49.1874 39.0284 49.2136 38.8968 49.2136 38.764V37.4157C49.2136 36.8571 48.7608 36.4045 48.2024 36.4045C47.644 36.4045 47.1912 36.8571 47.1912 37.4157V38.764C47.1912 39.0322 47.2977 39.2894 47.4873 39.4791C47.677 39.6687 47.9342 39.7753 48.2024 39.7753ZM48.2024 46.5168C48.3352 46.5168 48.4667 46.4907 48.5894 46.4399C48.712 46.3891 48.8235 46.3146 48.9174 46.2207C49.0113 46.1268 49.0858 46.0153 49.1366 45.8926C49.1874 45.7699 49.2136 45.6384 49.2136 45.5056V44.1573C49.2136 43.5986 48.7608 43.146 48.2024 43.146C47.644 43.146 47.1912 43.5986 47.1912 44.1573V45.5056C47.1912 45.6384 47.2173 45.7699 47.2681 45.8926C47.3189 46.0153 47.3934 46.1267 47.4873 46.2206C47.5812 46.3145 47.6927 46.389 47.8154 46.4399C47.9381 46.4907 48.0696 46.5168 48.2024 46.5168ZM48.2024 53.2584C48.3352 53.2584 48.4667 53.2323 48.5894 53.1814C48.712 53.1306 48.8235 53.0561 48.9174 52.9622C49.0113 52.8683 49.0858 52.7569 49.1366 52.6342C49.1874 52.5115 49.2136 52.38 49.2136 52.2472V50.8988C49.2136 50.3402 48.7608 49.8876 48.2024 49.8876C47.644 49.8876 47.1912 50.3402 47.1912 50.8988V52.2472C47.1912 52.5154 47.2977 52.7726 47.4873 52.9622C47.677 53.1518 47.9342 53.2584 48.2024 53.2584ZM30.3371 15.8426C30.3371 15.5745 30.2306 15.3173 30.041 15.1276C29.8513 14.938 29.5941 14.8314 29.3259 14.8314H21.236C21.1032 14.8314 20.9717 14.8576 20.849 14.9084C20.7263 14.9592 20.6148 15.0337 20.5209 15.1276C20.427 15.2215 20.3525 15.333 20.3017 15.4557C20.2509 15.5783 20.2248 15.7098 20.2248 15.8426C20.2248 16.1108 20.3313 16.368 20.521 16.5577C20.7106 16.7473 20.9678 16.8539 21.236 16.8539H29.3259C29.4587 16.8539 29.5902 16.8277 29.7129 16.7769C29.8356 16.7261 29.9471 16.6516 30.041 16.5577C30.1349 16.4638 30.2094 16.3523 30.2602 16.2296C30.311 16.1069 30.3371 15.9754 30.3371 15.8426Z" fill="#0074D9"/>
</svg>
