<svg width="60" height="60" viewBox="0 0 60 60" fill="none" xmlns="http://www.w3.org/2000/svg">
<path fill-rule="evenodd" clip-rule="evenodd" d="M7.63875 41.8012V43.1962L29.4375 27.7275C29.6017 27.6111 29.7979 27.5487 29.9991 27.5487C30.2003 27.5487 30.3965 27.6111 30.5606 27.7275L52.3613 43.1343V41.8012L30 25.935L7.63875 41.8012ZM33.8887 40.1831H30.9731V43.1212H33.8887V40.1831ZM29.0269 43.1212V40.1831H26.1112V43.1212H29.0269ZM27.0731 19.7306C27.1003 18.9725 27.4205 18.2544 27.9664 17.7277C28.5124 17.201 29.2414 16.9066 30 16.9066C30.7586 16.9066 31.4876 17.201 32.0336 17.7277C32.5795 18.2544 32.8997 18.9725 32.9269 19.7306V21.5493C32.927 21.7045 32.9641 21.8575 33.0352 21.9954C33.1063 22.1333 33.2093 22.2523 33.3356 22.3425L56.25 38.64V42.12L30.5625 23.8931C30.398 23.7769 30.2015 23.7145 30 23.7145C29.7985 23.7145 29.602 23.7769 29.4375 23.8931L3.75 42.12V38.6118L26.6644 22.3425C26.7909 22.2525 26.8941 22.1336 26.9652 21.9956C27.0363 21.8576 27.0733 21.7046 27.0731 21.5493V19.7306ZM30.9731 35.3437V38.2387H33.8887V35.3437H30.9731ZM26.1112 38.2387H29.0269V35.3437H26.1112V38.2387Z" fill="#0074D9"/>
</svg>
