<svg width="60" height="60" viewBox="0 0 60 60" fill="none" xmlns="http://www.w3.org/2000/svg">
<path d="M59.903 43.642L45.7823 15.517C45.7045 15.3616 45.5849 15.2309 45.4369 15.1396C45.289 15.0483 45.1185 14.9999 44.9447 15H12.6431C12.4677 15 12.2959 15.0492 12.147 15.142C11.9982 15.2348 11.8784 15.3675 11.8013 15.525L0.51375 38.5584C0.368125 38.6383 0.246413 38.7555 0.161141 38.8981C0.0758691 39.0406 0.0301172 39.2033 0.0285938 39.3694C0.0285938 39.3694 0 44.0536 0 44.0564C0.000728898 44.3054 0.0995429 44.5441 0.275028 44.7207C0.450512 44.8973 0.68853 44.9977 0.9375 45H32.6681C32.8436 45 33.0155 44.9507 33.1643 44.8578C33.3131 44.7649 33.4329 44.6321 33.51 44.4745L43.0866 24.8934L52.7316 44.4769C52.8089 44.6339 52.9287 44.7661 53.0773 44.8585C53.2259 44.951 53.3975 45 53.5725 45H59.0653C59.2242 44.9974 59.38 44.9549 59.5182 44.8763C59.6563 44.7977 59.7725 44.6856 59.8559 44.5504C59.9394 44.4151 59.9874 44.261 59.9957 44.1022C60.0039 43.9435 59.972 43.7852 59.903 43.642ZM4.03922 35.625H6.63047L5.24813 38.4375H2.6625L4.03922 35.625ZM6.33609 30.9375H8.93578L7.55297 33.75H4.95844L6.33609 30.9375ZM8.63344 26.25H11.2406L9.85781 29.0625H7.25531L8.63344 26.25ZM10.935 21.5541C10.9622 21.5564 10.9884 21.5625 11.0161 21.5625H13.5455L12.1631 24.375H9.55219L10.935 21.5541ZM20.5383 16.875L19.1555 19.6875H16.5572L17.94 16.875H20.5383ZM25.2258 16.875L23.843 19.6875H21.2452L22.628 16.875H25.2258ZM29.9133 16.875L28.5305 19.6875H25.9327L27.3155 16.875H29.9133ZM34.6012 16.875L33.2184 19.6875H30.6202L32.003 16.875H34.6012ZM14.5453 29.0625H11.9475L13.3308 26.25H15.9286L14.5453 29.0625ZM18.0187 26.25H20.6161L19.2333 29.0625H16.6359L18.0187 26.25ZM22.7062 26.25H25.3041L23.9213 29.0625H21.323L22.7062 26.25ZM27.3937 26.25H29.9916L28.6088 29.0625H26.0109L27.3937 26.25ZM28.3158 24.375L29.6986 21.5625H32.2969L30.9141 24.375H28.3158ZM26.2261 24.375H23.6278L25.0111 21.5625H27.6094L26.2261 24.375ZM21.5386 24.375H18.9403L20.3231 21.5625H22.9209L21.5386 24.375ZM16.8511 24.375H14.2523L15.6356 21.5625H18.2334L16.8511 24.375ZM11.025 30.9375H13.6233L12.2405 33.75H9.64219L11.025 30.9375ZM15.7125 30.9375H18.3108L16.928 33.75H14.3302L15.7125 30.9375ZM20.4005 30.9375H22.9987L21.6159 33.75H19.0177L20.4005 30.9375ZM25.088 30.9375H27.6862L26.3034 33.75H23.7056L25.088 30.9375ZM8.72062 35.625H11.3184L9.93563 38.4375H7.33734L8.72062 35.625ZM13.4081 35.625H16.0059L14.6236 38.4375H12.0253L13.4081 35.625ZM18.0961 35.625H20.6939L19.3111 38.4375H16.7128L18.0961 35.625ZM22.7836 35.625H25.3814L23.9991 38.4375H21.4008L22.7836 35.625ZM27.4716 35.625H30.0431L28.6777 38.4375H26.0883L27.4716 35.625ZM30.953 33.75H28.3936L29.7764 30.9375H32.3189L30.953 33.75ZM33.2288 29.0625H30.6984L32.0817 26.25H34.5938L33.2288 29.0625ZM35.4989 24.3858C35.4637 24.3801 35.4281 24.3765 35.3925 24.375H33.0033L34.3866 21.5625H36.8691L35.4989 24.3858ZM37.7798 19.6875H35.3086L36.6914 16.875H39.1448L37.7798 19.6875ZM13.2281 16.875H15.8508L14.468 19.6875H11.8491L13.2281 16.875ZM54.1556 43.125L43.9256 22.3514C43.8482 22.1943 43.7284 22.062 43.5797 21.9694C43.431 21.8769 43.2594 21.8278 43.0842 21.8278H43.0828C42.9075 21.828 42.7358 21.8774 42.5872 21.9703C42.4385 22.0631 42.3189 22.1958 42.2419 22.3533L32.0831 43.125H1.88109L1.89797 40.3125H29.2641C29.4401 40.3126 29.6126 40.263 29.7618 40.1696C29.9111 40.0762 30.031 39.9426 30.1078 39.7842L41.2284 16.875H44.3658L57.5452 43.125H54.1556Z" fill="#0074D9"/>
</svg>
