<svg width="60" height="60" viewBox="0 0 60 60" fill="none" xmlns="http://www.w3.org/2000/svg">
<g clip-path="url(#clip0_901_208)">
<path d="M59.9964 45.5619C59.9964 45.5454 59.9964 45.5307 59.9945 45.5143C59.9926 45.5033 59.9926 45.4923 59.9909 45.4814C59.989 45.4631 59.9854 45.4466 59.9836 45.4283C59.9817 45.4192 59.9817 45.41 59.9781 45.4009C59.9741 45.3745 59.9692 45.3482 59.9634 45.3221L51.2109 10.3225C51.1439 10.0517 50.9881 9.81125 50.7683 9.63948C50.5486 9.46771 50.2776 9.37455 49.9987 9.37488H9.99955C9.72078 9.3751 9.45008 9.46847 9.23045 9.64015C9.01082 9.81184 8.85487 10.052 8.78736 10.3225L0.0366804 45.322C0.0294147 45.3477 0.0256647 45.3751 0.0201568 45.4008C0.0182818 45.4099 0.0182818 45.419 0.014649 45.43C0.012774 45.4466 0.0110162 45.463 0.00738333 45.4814C0.00738333 45.4924 0.00550832 45.5034 0.0037505 45.5143C0.0037505 45.5308 0.00187549 45.5455 0.00187549 45.5619C4.76837e-07 45.5729 4.76837e-07 45.5857 4.76837e-07 45.5967V49.3741C4.76837e-07 49.7788 0.195939 50.1596 0.525472 50.394C0.688424 50.5096 0.876655 50.5845 1.07446 50.6126C1.27226 50.6406 1.4739 50.6209 1.66255 50.5552L8.40814 48.1986L15.2159 50.5552C15.4796 50.6486 15.769 50.6467 16.0363 50.5552L22.8112 48.1986L29.5897 50.5552C29.8533 50.6486 30.1444 50.6486 30.41 50.5552L37.1867 48.1986L43.9634 50.5552C44.2307 50.6486 44.52 50.6486 44.7837 50.5552L51.5622 48.1986L58.339 50.5552C58.4727 50.601 58.6118 50.6248 58.7491 50.6248C59.0055 50.6248 59.26 50.546 59.4724 50.394C59.8038 50.1596 59.9998 49.7788 59.9998 49.3741V45.6241C60 45.615 60 45.6058 60 45.5967C59.9981 45.5857 59.9981 45.5729 59.9964 45.5619ZM56.975 43.6851L51.9725 41.9438C51.7067 41.8523 51.418 41.8523 51.1522 41.9438L45.423 43.9359L44.1797 33.9785L49.2883 32.2118L54.5745 34.0793L56.975 43.6851ZM51.7639 22.8368L53.8476 31.1718L49.7076 29.7096C49.4405 29.6153 49.1494 29.6144 48.8818 29.7069L43.8611 31.4436L42.7716 22.7214L47.0545 21.2208L51.7639 22.8368ZM49.0246 11.8751L51.0425 19.9464L47.4573 18.7159C47.1914 18.6244 46.9024 18.6254 46.637 18.7186L42.4548 20.1835L41.4148 11.8751H49.0246ZM31.2488 11.8752H38.8953L39.9171 20.0381L36.0902 18.717C35.8256 18.6253 35.5379 18.6256 35.2735 18.7179L31.2488 20.1168V11.8752ZM31.2487 22.7636L35.6837 21.221L40.2613 22.803L41.3214 31.2752L36.8427 29.7088C36.5766 29.6156 36.2868 29.6152 36.0205 29.7078L31.2487 31.3668V22.7636ZM31.2487 34.0133L36.4289 32.2118L41.6674 34.0445L42.8833 43.7822L37.5989 41.9437C37.3325 41.8522 37.0431 41.8522 36.7767 41.9437L31.2487 43.8663V34.0133ZM21.1029 11.8752H28.7494V20.1168L24.7266 18.7179C24.4616 18.6256 24.1733 18.6253 23.9081 18.717L20.083 20.0381L21.1029 11.8752ZM28.7495 34.0135V43.8664L23.2215 41.9437C22.9558 41.8522 22.667 41.8522 22.4012 41.9437L17.115 43.7822L18.3327 34.0483L23.5695 32.2119L28.7495 34.0135ZM19.737 22.8029L24.3146 21.2208L28.7493 22.7635V31.3668L23.9794 29.7078C23.7125 29.6152 23.4221 29.6155 23.1554 29.7088L18.6767 31.2781L19.737 22.8029ZM10.9755 11.8752H18.5835L17.5453 20.1836L13.3631 18.7188C13.0978 18.6254 12.8087 18.6244 12.5428 18.7161L8.95763 19.9465L10.9755 11.8752ZM8.23622 22.8369L12.9457 21.221L17.2267 22.7216L16.139 31.4411L11.1146 29.707C10.8476 29.6146 10.5571 29.6155 10.2906 29.7097L6.1525 31.1719L8.23622 22.8369ZM5.4237 34.0792L10.7118 32.2117L15.8204 33.9748L14.5753 43.9377L8.81665 41.9437C8.68534 41.8981 8.54738 41.8746 8.40837 41.8741C8.26915 41.8741 8.12817 41.8979 7.99458 41.9437L3.0251 43.6814L5.4237 34.0792ZM57.4985 47.6165L51.9726 45.6937C51.7068 45.6022 51.4181 45.6022 51.1523 45.6937L44.3738 48.0503L37.5989 45.6937C37.3325 45.6022 37.0431 45.6022 36.7767 45.6937L30.0001 48.0503L23.2215 45.6937C22.9558 45.6022 22.667 45.6022 22.4012 45.6937L15.6227 48.0521L8.81665 45.6937C8.68534 45.6481 8.54738 45.6246 8.40837 45.6241C8.26915 45.6241 8.12817 45.6479 7.99458 45.6937L2.49962 47.6146V46.5123L8.40837 44.4487L15.2162 46.8053V46.8071C15.2308 46.8108 15.2418 46.8144 15.2546 46.8181C15.2784 46.8254 15.3041 46.8328 15.3297 46.8383C15.3444 46.8419 15.359 46.8456 15.3737 46.8474C15.3975 46.8529 15.4231 46.8585 15.4469 46.8621C15.4542 46.8621 15.4616 46.864 15.469 46.8657C15.4817 46.8676 15.4946 46.8676 15.5055 46.8694C15.5147 46.8694 15.522 46.8694 15.5312 46.8712C15.5624 46.8731 15.5934 46.8749 15.6263 46.8749C15.6465 46.8749 15.6667 46.873 15.6886 46.8712C15.7032 46.8712 15.7179 46.8712 15.7325 46.8694C15.7545 46.8675 15.7765 46.8638 15.8002 46.8621L15.8387 46.8566C15.8607 46.8529 15.8826 46.8474 15.9045 46.8419C15.9192 46.8383 15.932 46.8364 15.9449 46.8328C15.9669 46.8273 15.9852 46.82 16.0071 46.8145C16.0162 46.8109 16.0254 46.809 16.0364 46.8054L22.8113 44.4488L29.5898 46.8054C29.5934 46.8072 29.6008 46.809 29.6063 46.8109C29.6228 46.8164 29.6411 46.8219 29.6594 46.8274C29.6795 46.8329 29.6997 46.8365 29.718 46.842C29.7363 46.8457 29.7528 46.8493 29.7693 46.8531C29.7931 46.8567 29.8169 46.8603 29.8389 46.8641L29.8829 46.8696C29.9602 46.877 30.038 46.877 30.1154 46.8696C30.1319 46.8677 30.1447 46.866 30.1593 46.8641C30.1831 46.8604 30.2051 46.8568 30.2289 46.8531C30.2454 46.8494 30.2637 46.8458 30.282 46.842C30.3003 46.8365 30.3186 46.8329 30.3387 46.8274L30.3937 46.8109L30.4102 46.8054L37.187 44.4488L43.9636 46.8054C43.9746 46.809 43.9819 46.8109 43.9929 46.8145C44.0131 46.82 44.0332 46.8273 44.0551 46.8328C44.0679 46.8364 44.0808 46.8383 44.0955 46.8419C44.1175 46.8474 44.1394 46.8529 44.1613 46.8566C44.1741 46.8585 44.187 46.8602 44.2016 46.8621C44.2237 46.8657 44.2456 46.8676 44.2675 46.8694C44.2858 46.8712 44.3078 46.8712 44.3261 46.873C44.3407 46.873 44.3573 46.8749 44.3737 46.8749C44.4048 46.8749 44.4359 46.873 44.4688 46.8712C44.4761 46.8694 44.4871 46.8694 44.4962 46.8676C44.5073 46.8676 44.5183 46.8657 44.5292 46.8657C44.5364 46.8638 44.5419 46.8621 44.5493 46.8621C44.575 46.8585 44.6024 46.8529 44.6281 46.8474C44.6408 46.8456 44.6555 46.8419 44.6701 46.8383C44.6939 46.8328 44.7196 46.8255 44.7434 46.8181C44.758 46.8145 44.7691 46.8109 44.7837 46.8054L51.5622 44.4488L57.4985 46.5143V47.6165Z" fill="#0074D9"/>
</g>
<defs>
<clipPath id="clip0_901_208">
<rect width="60" height="60" fill="white"/>
</clipPath>
</defs>
</svg>
