<svg width="50" height="50" viewBox="0 0 50 50" fill="none" xmlns="http://www.w3.org/2000/svg">
<path d="M9.20837 39.1667V29.25" stroke="#0074D9" stroke-width="2" stroke-miterlimit="10" stroke-linecap="round" stroke-linejoin="round"/>
<path d="M9.20837 15.0833V10.8333" stroke="#0074D9" stroke-width="2" stroke-miterlimit="10" stroke-linecap="round" stroke-linejoin="round"/>
<path d="M24.7916 39.1667V34.9167" stroke="#0074D9" stroke-width="2" stroke-miterlimit="10" stroke-linecap="round" stroke-linejoin="round"/>
<path d="M24.7916 20.7499V10.8333" stroke="#0074D9" stroke-width="2" stroke-miterlimit="10" stroke-linecap="round" stroke-linejoin="round"/>
<path d="M13.4584 17.9166V26.4166C13.4584 27.9749 12.75 29.2499 10.625 29.2499H7.79171C5.66671 29.2499 4.95837 27.9749 4.95837 26.4166V17.9166C4.95837 16.3583 5.66671 15.0833 7.79171 15.0833H10.625C12.75 15.0833 13.4584 16.3583 13.4584 17.9166Z" stroke="#0074D9" stroke-width="2" stroke-miterlimit="10" stroke-linecap="round" stroke-linejoin="round"/>
<path d="M29.0416 23.5833V32.0833C29.0416 33.6417 28.3333 34.9167 26.2083 34.9167H23.375C21.25 34.9167 20.5416 33.6417 20.5416 32.0833V23.5833C20.5416 22.025 21.25 20.75 23.375 20.75H26.2083C28.3333 20.75 29.0416 22.025 29.0416 23.5833Z" stroke="#0074D9" stroke-width="2" stroke-miterlimit="10" stroke-linecap="round" stroke-linejoin="round"/>
</svg>
