<svg width="50" height="50" viewBox="0 0 50 50" fill="none" xmlns="http://www.w3.org/2000/svg">
<path d="M27.0072 17.2047C29.5449 17.2047 31.6096 15.1401 31.6096 12.6024C31.6096 10.0646 29.5449 8 27.0072 8C24.4694 8 22.4048 10.0646 22.4048 12.6024C22.4048 15.1401 24.4694 17.2047 27.0072 17.2047ZM27.0072 9.99219C28.4464 9.99219 29.6173 11.1631 29.6173 12.6024C29.6173 14.0416 28.4464 15.2125 27.0071 15.2125C25.5679 15.2125 24.3969 14.0416 24.3969 12.6024C24.3969 11.1631 25.5679 9.99219 27.0072 9.99219ZM4.60235 8C2.06464 8 0 10.0646 0 12.6024C0 15.1401 2.06464 17.2047 4.60235 17.2047C7.14013 17.2047 9.20477 15.1401 9.20477 12.6024C9.20477 10.0646 7.14013 8 4.60235 8ZM4.60235 15.2125C3.16313 15.2125 1.99219 14.0416 1.99219 12.6024C1.99219 11.1631 3.16313 9.99219 4.60235 9.99219C6.04164 9.99219 7.21258 11.1631 7.21258 12.6024C7.21258 14.0416 6.04164 15.2125 4.60235 15.2125Z" fill="#0074D9"/>
<path d="M28.1165 22.8086C27.6217 22.808 27.1343 22.9286 26.6969 23.1599C26.1811 22.2054 25.171 21.5556 24.0121 21.5556C23.5173 21.5549 23.03 21.6756 22.5926 21.9069C22.077 20.9523 21.0674 20.3025 19.9089 20.3025C19.5484 20.3021 19.1908 20.366 18.8527 20.4911L18.8526 16.0489C19.8413 15.1743 20.4073 13.9253 20.4073 12.6024C20.4072 10.0646 18.3426 8 15.8048 8C13.2671 8 11.2025 10.0646 11.2025 12.6024C11.2025 13.9351 11.7655 15.1763 12.7567 16.0507L12.7569 25.2072H12.3334C10.6529 25.2072 9.28566 26.5749 9.28566 28.256L9.28552 30.33C9.28532 33.4558 10.5105 36.5058 12.6609 38.7656V41.0038C12.6609 41.268 12.7658 41.5214 12.9526 41.7082C13.1394 41.895 13.3928 41.9999 13.657 41.9999H27.5134C28.0635 41.9999 28.5095 41.5539 28.5095 41.0038V38.6962C30.2249 36.4036 31.1659 33.5845 31.1659 30.7175V25.858C31.1658 24.1765 29.7978 22.8086 28.1165 22.8086ZM15.8048 9.99219C17.2441 9.99219 18.4151 11.1631 18.4151 12.6024C18.4152 12.988 18.3297 13.3689 18.1648 13.7176C17.6054 13.0335 16.7554 12.596 15.8048 12.596C14.854 12.596 14.0036 13.0339 13.4442 13.7183C13.2794 13.3694 13.1942 12.9882 13.1947 12.6023C13.1947 11.1631 14.3656 9.99219 15.8048 9.99219ZM29.1736 30.7174C29.1736 33.2552 28.3065 35.749 26.732 37.7394C26.5929 37.9153 26.5172 38.133 26.5172 38.3574V40.0077H14.653V38.3573C14.653 38.0894 14.5451 37.8328 14.3536 37.6454C12.3986 35.732 11.2775 33.0656 11.2776 30.33L11.2778 28.256C11.2778 27.6733 11.7513 27.1993 12.3334 27.1993H13.753C14.0172 27.1993 14.2705 27.0943 14.4573 26.9075C14.6441 26.7207 14.7491 26.4673 14.7491 26.2031L14.7488 15.644C14.7488 15.0618 15.2226 14.5881 15.8048 14.5881C16.3867 14.5881 16.8602 15.0613 16.8603 15.6431C16.8605 19.1978 16.8605 25.4997 16.8605 25.4997C16.8605 26.0498 17.3065 26.4958 17.8566 26.4958C18.4067 26.4958 18.8527 26.0498 18.8527 25.4997L18.8528 23.3505C18.8529 22.7682 19.3265 22.2945 19.9088 22.2945C20.491 22.2945 20.9648 22.7687 20.9648 23.3517L20.9649 26.7527C20.9649 27.3028 21.4108 27.7488 21.9609 27.7488C22.5111 27.7488 22.957 27.3028 22.957 26.7527V24.6026C22.957 24.0208 23.4303 23.5476 24.012 23.5476C24.595 23.5476 25.0692 24.0218 25.0692 24.6047V28.6323C25.0692 29.1824 25.5152 29.6284 26.0653 29.6284C26.6154 29.6284 27.0614 29.1824 27.0614 28.6323V25.8556C27.0614 25.2739 27.5347 24.8006 28.1164 24.8006C28.6993 24.8006 29.1735 25.2749 29.1735 25.8577L29.1736 30.7174Z" fill="#0074D9"/>
</svg>
