<svg width="50" height="50" viewBox="0 0 50 50" fill="none" xmlns="http://www.w3.org/2000/svg">
<path d="M25.636 9.972H23.664V8.986C23.664 8.442 23.222 8 22.678 8C22.134 8 21.692 8.442 21.692 8.986V9.972H9.86V8.986C9.86 8.442 9.418 8 8.874 8C8.33 8 7.888 8.442 7.888 8.986V9.972H5.916C2.6486 9.972 0 12.6206 0 15.888V35.6046C0 38.872 2.6486 41.5206 5.916 41.5206H25.636C28.9034 41.5206 31.552 38.872 31.552 35.6046V15.8846C31.5486 12.6206 28.9 9.972 25.636 9.972ZM29.5766 35.6012C29.5732 37.7772 27.8086 39.5418 25.6326 39.5452H5.916C3.74 39.5418 1.9754 37.7772 1.972 35.6012V19.8286H29.5766V35.6012ZM29.5766 17.8566H1.9754V15.8846C1.9788 13.7086 3.7434 11.944 5.9194 11.9406H7.8914V12.9266C7.8914 13.4706 8.3334 13.9126 8.8774 13.9126C9.4214 13.9126 9.8634 13.4706 9.8634 12.9266V11.9406H21.692V12.9266C21.692 13.4706 22.134 13.9126 22.678 13.9126C23.222 13.9126 23.664 13.4706 23.664 12.9266V11.9406H25.636C27.812 11.944 29.5766 13.7086 29.58 15.8846V17.8566H29.5766ZM9.86 29.6886C9.86 29.1446 10.302 28.7026 10.846 28.7026H14.79V24.7586C14.79 24.2146 15.232 23.7726 15.776 23.7726C16.32 23.7726 16.762 24.2146 16.762 24.7586V28.7026H20.706C21.25 28.7026 21.692 29.1446 21.692 29.6886C21.692 30.2326 21.25 30.6746 20.706 30.6746H16.762V34.6186C16.762 35.1626 16.32 35.6046 15.776 35.6046C15.232 35.6046 14.79 35.1626 14.79 34.6186V30.6746H10.846C10.302 30.6746 9.86 30.2326 9.86 29.6886Z" fill="#0074D9"/>
</svg>
