<svg width="40" height="40" viewBox="0 0 40 40" fill="none" xmlns="http://www.w3.org/2000/svg">
<path d="M21.25 32.5H11.25C9.1825 32.5 7.5 30.8175 7.5 28.75V7.5C7.5 5.4325 9.1825 3.75 11.25 3.75H26.25C28.3175 3.75 30 5.4325 30 7.5V13.825C30 14.1565 30.1317 14.4745 30.3661 14.7089C30.6005 14.9433 30.9185 15.075 31.25 15.075C31.5815 15.075 31.8995 14.9433 32.1339 14.7089C32.3683 14.4745 32.5 14.1565 32.5 13.825V7.5C32.5 4.05375 29.6963 1.25 26.25 1.25H11.25C7.80375 1.25 5 4.05375 5 7.5V28.75C5 32.1963 7.80375 35 11.25 35H21.25C21.5815 35 21.8995 34.8683 22.1339 34.6339C22.3683 34.3995 22.5 34.0815 22.5 33.75C22.5 33.4185 22.3683 33.1005 22.1339 32.8661C21.8995 32.6317 21.5815 32.5 21.25 32.5Z" fill="#0074D9"/>
<path d="M12.5 11.25H21.25C21.5815 11.25 21.8995 11.1183 22.1339 10.8839C22.3683 10.6495 22.5 10.3315 22.5 10C22.5 9.66848 22.3683 9.35054 22.1339 9.11612C21.8995 8.8817 21.5815 8.75 21.25 8.75H12.5C12.1685 8.75 11.8505 8.8817 11.6161 9.11612C11.3817 9.35054 11.25 9.66848 11.25 10C11.25 10.3315 11.3817 10.6495 11.6161 10.8839C11.8505 11.1183 12.1685 11.25 12.5 11.25ZM24.2 16.25C24.2 15.9185 24.0683 15.6005 23.8339 15.3661C23.5995 15.1317 23.2815 15 22.95 15H12.5C12.1685 15 11.8505 15.1317 11.6161 15.3661C11.3817 15.6005 11.25 15.9185 11.25 16.25C11.25 16.5815 11.3817 16.8995 11.6161 17.1339C11.8505 17.3683 12.1685 17.5 12.5 17.5H22.95C23.2815 17.5 23.5995 17.3683 23.8339 17.1339C24.0683 16.8995 24.2 16.5815 24.2 16.25ZM20.65 21.25C20.65 20.9185 20.5183 20.6005 20.2839 20.3661C20.0495 20.1317 19.7315 20 19.4 20H12.5C12.1685 20 11.8505 20.1317 11.6161 20.3661C11.3817 20.6005 11.25 20.9185 11.25 21.25C11.25 21.5815 11.3817 21.8995 11.6161 22.1339C11.8505 22.3683 12.1685 22.5 12.5 22.5H19.4C19.7315 22.5 20.0495 22.3683 20.2839 22.1339C20.5183 21.8995 20.65 21.5815 20.65 21.25ZM12.5 25C12.1685 25 11.8505 25.1317 11.6161 25.3661C11.3817 25.6005 11.25 25.9185 11.25 26.25C11.25 26.5815 11.3817 26.8995 11.6161 27.1339C11.8505 27.3683 12.1685 27.5 12.5 27.5H18.825C19.1565 27.5 19.4745 27.3683 19.7089 27.1339C19.9433 26.8995 20.075 26.5815 20.075 26.25C20.075 25.9185 19.9433 25.6005 19.7089 25.3661C19.4745 25.1317 19.1565 25 18.825 25H12.5ZM37.5 25C37.5 20.8638 34.1362 17.5 30 17.5C25.8638 17.5 22.5 20.8638 22.5 25C22.5 27.2138 23.47 29.2 25 30.575V36.8713C25 37.5637 25.3813 38.1987 25.9925 38.5262C26.6075 38.8562 27.3425 38.82 27.9225 38.4338L30 37.0387L32.0825 38.4363C32.366 38.6223 32.6944 38.7285 33.0332 38.7434C33.372 38.7584 33.7085 38.6816 34.0073 38.5212C34.306 38.3608 34.556 38.1227 34.7307 37.8321C34.9054 37.5415 34.9985 37.2091 35 36.87V30.5737C35.7859 29.873 36.4148 29.0141 36.8456 28.0533C37.2764 27.0926 37.4994 26.0529 37.5 25ZM32.5 35.705L30.6975 34.495C30.4916 34.3563 30.2489 34.2822 30.0006 34.2822C29.7523 34.2822 29.5097 34.3563 29.3038 34.495L27.5012 35.705V32.0625C28.285 32.3412 29.1237 32.5 30.0012 32.5C30.8787 32.5 31.7175 32.34 32.5012 32.0625L32.5 35.705ZM30 30C27.2425 30 25 27.7575 25 25C25 22.2425 27.2425 20 30 20C32.7575 20 35 22.2425 35 25C35 27.7575 32.7575 30 30 30Z" fill="#0074D9"/>
</svg>
