<svg width="90" height="90" viewBox="0 0 90 90" fill="none" xmlns="http://www.w3.org/2000/svg">
<path d="M70.6062 34.2919V29.4187C70.6037 27.1867 69.716 25.0468 68.1377 23.4685C66.5594 21.8903 64.4195 21.0025 62.1875 21H29.2812C27.049 21.0025 24.9089 21.8902 23.3303 23.4684C21.7518 25.0467 20.8636 27.1865 20.8606 29.4187V40.2562C20.8606 40.7038 21.0384 41.133 21.3549 41.4495C21.6713 41.766 22.1005 41.9437 22.5481 41.9437C22.9956 41.9437 23.4249 41.766 23.7413 41.4495C24.0578 41.133 24.2356 40.7038 24.2356 40.2562V29.4187C24.2376 28.0818 24.7697 26.8003 25.7152 25.8551C26.6607 24.91 27.9424 24.3784 29.2793 24.3769H62.1875C63.5242 24.3784 64.8058 24.91 65.751 25.8552C66.6962 26.8005 67.2279 28.082 67.2293 29.4187V34.0669H61.5762C59.5337 34.0694 57.5755 34.8819 56.1311 36.3262C54.6868 37.7705 53.8743 39.7287 53.8718 41.7712V42.9281C53.8743 44.9707 54.6868 46.9289 56.1311 48.3732C57.5755 49.8175 59.5337 50.63 61.5762 50.6325H67.2293V55.2919C67.2279 56.6286 66.6962 57.9102 65.751 58.8554C64.8058 59.8006 63.5242 60.3323 62.1875 60.3337H45.2562C44.8087 60.3337 44.3794 60.5115 44.063 60.828C43.7465 61.1445 43.5687 61.5737 43.5687 62.0212C43.5687 62.4688 43.7465 62.898 44.063 63.2145C44.3794 63.531 44.8087 63.7087 45.2562 63.7087H62.1875C64.4195 63.7063 66.5594 62.8185 68.1377 61.2402C69.716 59.6619 70.6037 57.522 70.6062 55.29V50.4037C71.2699 50.1593 71.843 49.7177 72.2485 49.1383C72.6541 48.5588 72.8726 47.8692 72.875 47.1619V37.53C72.875 36.045 71.9262 34.7831 70.6062 34.2919ZM57.2487 42.9281V41.7712C57.2497 40.6233 57.7062 39.5227 58.5179 38.711C59.3296 37.8993 60.4302 37.4429 61.5781 37.4419L69.5 37.5337V47.1656C69.4995 47.1898 69.4897 47.2129 69.4725 47.2301C69.4554 47.2472 69.4323 47.257 69.4081 47.2575H61.5781C60.4303 47.256 59.33 46.7994 58.5184 45.9878C57.7068 45.1762 57.2502 44.0759 57.2487 42.9281Z" fill="#0074D9"/>
<path d="M28.6831 44.505C23.0563 44.505 17 46.245 17 50.0644V63.1444C17 65.37 19.1169 67.1138 22.9606 68.0606C24.6781 68.4806 26.6581 68.7038 28.685 68.7038C30.6173 68.7144 32.5442 68.4986 34.4262 68.0606C38.2681 67.1156 40.385 65.3681 40.385 63.1444V50.0644C40.3812 46.245 34.3175 44.505 28.6831 44.505ZM37.0063 56.5838C36.9275 56.7825 36.1325 57.6244 33.6106 58.2338C30.7081 58.9613 26.6581 58.965 23.7575 58.23C21.2056 57.6131 20.4275 56.7544 20.375 56.6063V54.0994C21.1325 54.4425 22.0006 54.7369 22.985 54.9694C24.8524 55.4078 26.765 55.6243 28.6831 55.6144C30.6969 55.6144 32.6731 55.3913 34.3831 54.9731C35.283 54.7663 36.1608 54.473 37.0044 54.0975V56.5838H37.0063ZM28.6831 47.8819C33.8656 47.8819 36.7062 49.4269 36.9969 50.0625C36.8731 50.2988 36.0406 51.1106 33.5956 51.69C30.6781 52.4025 26.7369 52.41 23.7763 51.6863C21.245 51.0881 20.4519 50.235 20.3769 50.1056V50.0906C20.585 49.4756 23.4275 47.8819 28.6831 47.8819ZM37.0081 63.1144C36.9537 63.2944 36.1756 64.155 33.6219 64.7831C30.6725 65.4975 26.675 65.4956 23.7613 64.785C21.2038 64.155 20.4256 63.2944 20.3731 63.1463V60.6525C21.2019 61.0158 22.0624 61.302 22.9438 61.5075C26.3431 62.3625 31.01 62.3663 34.4131 61.5113C35.39 61.275 36.2563 60.9863 37.0063 60.6506L37.0081 63.1144Z" fill="#FF5323"/>
<path d="M41.3637 29.7825H31.6962C31.2487 29.7825 30.8195 29.9603 30.503 30.2767C30.1865 30.5932 30.0087 31.0224 30.0087 31.47C30.0087 31.9175 30.1865 32.3467 30.503 32.6632C30.8195 32.9797 31.2487 33.1575 31.6962 33.1575H41.3637C41.8113 33.1575 42.2405 32.9797 42.557 32.6632C42.8734 32.3467 43.0512 31.9175 43.0512 31.47C43.0512 31.0224 42.8734 30.5932 42.557 30.2767C42.2405 29.9603 41.8113 29.7825 41.3637 29.7825Z" fill="#0074D9"/>
</svg>
