<svg width="90" height="90" viewBox="0 0 90 90" fill="none" xmlns="http://www.w3.org/2000/svg">
<path d="M72.7973 51.3546L72.7842 51.3321C72.1839 50.4182 71.2675 49.7578 70.2106 49.4774C69.1537 49.197 68.0305 49.3163 67.0561 49.8125L61.0486 52.8846C60.329 51.8745 59.2705 51.1566 58.0658 50.8618C56.8612 50.567 55.5907 50.715 54.4861 51.2787L46.9204 55.1562C46.5258 55.3595 46.0878 55.4642 45.6439 55.4615C45.2 55.4587 44.7634 55.3485 44.3714 55.1403L39.2151 52.4028C37.2638 51.3611 35.062 50.8804 32.854 51.0141C30.6461 51.1479 28.5184 51.8907 26.707 53.1603L26.1248 50.3834C26.0994 50.2625 26.0504 50.1479 25.9806 50.046C25.9107 49.9442 25.8215 49.8571 25.7179 49.7899C25.6143 49.7226 25.4985 49.6765 25.377 49.6541C25.2555 49.6318 25.1309 49.6337 25.0101 49.6596L17.7398 51.2281C17.4978 51.2803 17.2863 51.4261 17.1514 51.6337C17.0165 51.8413 16.9692 52.0939 17.0198 52.3362L21.2526 72.5046C21.2958 72.7161 21.4106 72.9062 21.5776 73.0428C21.7446 73.1794 21.9537 73.2543 22.1695 73.2546C22.2356 73.2543 22.3016 73.2474 22.3664 73.234L29.6404 71.6684C29.8827 71.6162 30.0943 71.4702 30.2293 71.2624C30.3642 71.0546 30.4113 70.8018 30.3604 70.5593L29.9854 68.7546L32.4708 68.2193C33.1951 68.0645 33.9408 68.0359 34.6748 68.135L46.3636 69.4165C48.7904 69.7375 51.2508 69.16 53.2814 67.7928L72.0061 55.2303C72.6183 54.8158 73.044 54.1782 73.1918 53.4538C73.3397 52.7294 73.1981 51.9759 72.7973 51.3546ZM22.8933 71.1978L19.0495 52.865L24.487 51.6931L28.3308 70.0268L22.8933 71.1978ZM70.9626 53.6759L52.2379 66.2384C50.5776 67.3521 48.5669 67.819 46.5857 67.5509L34.897 66.2693C33.9564 66.1425 33.0008 66.1806 32.0732 66.3818L29.5964 66.9143L27.1251 55.1562L27.7654 54.71C29.2944 53.634 31.092 53.0036 32.958 52.8887C34.8241 52.7738 36.6854 53.1791 38.3348 54.0593L43.4911 56.7968C44.15 57.1471 44.8839 57.3326 45.6301 57.3377C46.3764 57.3427 47.1127 57.1671 47.7764 56.8259L55.3439 52.9437C56.1003 52.5571 56.9763 52.4756 57.7912 52.716C58.606 52.9563 59.2974 53.5003 59.7229 54.2356C59.8478 54.4509 59.883 54.7066 59.8209 54.9476C59.7588 55.1887 59.6044 55.3956 59.3911 55.5237L48.9586 61.7112C47.1346 62.7991 44.9619 63.1432 42.8911 62.6721L33.4823 60.4221L33.0473 62.2465L42.4645 64.4965C45.0063 65.0789 47.6749 64.6589 49.9148 63.3237L60.3473 57.1362C60.7747 56.8797 61.1262 56.5142 61.3659 56.0772C61.6056 55.6402 61.7248 55.1473 61.7114 54.649L67.9064 51.4793C68.4674 51.1945 69.1135 51.1258 69.7218 51.2864C70.3301 51.447 70.8582 51.8256 71.2054 52.3503L71.2158 52.3662C71.3508 52.575 71.3999 52.8279 71.3527 53.072C71.3056 53.3161 71.1658 53.5325 70.9626 53.6759Z" fill="#0074D9"/>
<path d="M21.2339 54.305L23.0686 53.9206L23.453 55.7525L21.6193 56.1388L21.2339 54.305ZM44.573 52.445C44.7334 52.5619 44.9267 52.6249 45.1252 52.6249C45.3237 52.6249 45.517 52.5619 45.6774 52.445C55.0843 45.5834 60.8752 39.0406 62.9789 32.9375H67.7977C68.0188 33.563 68.454 34.0902 69.0263 34.4259C69.5985 34.7616 70.271 34.8842 70.9249 34.772C71.5788 34.6598 72.172 34.3201 72.5997 33.8128C73.0273 33.3056 73.2618 32.6635 73.2618 32C73.2618 31.3366 73.0273 30.6945 72.5997 30.1872C72.172 29.6799 71.5788 29.3402 70.9249 29.228C70.271 29.1158 69.5985 29.2384 69.0263 29.5741C68.454 29.9098 68.0188 30.437 67.7977 31.0625H63.5002C63.6599 30.3714 63.7711 29.67 63.833 28.9634C63.9986 27.5398 63.8752 26.0973 63.4702 24.7224C63.0653 23.3475 62.387 22.0685 61.4761 20.9619C60.5516 19.7302 59.3528 18.7308 57.9748 18.0431C56.5968 17.3554 55.0775 16.9983 53.5374 17C50.442 17.121 47.478 18.2831 45.1252 20.2981C42.7724 18.2831 39.8084 17.121 36.713 17C35.1727 16.9983 33.6531 17.3555 32.2748 18.0432C30.8965 18.7309 29.6973 19.7302 28.7724 20.9619C27.8619 22.0687 27.184 23.3478 26.7792 24.7226C26.3744 26.0975 26.2511 27.5398 26.4164 28.9634C26.9818 36.1681 33.0905 44.0694 44.573 52.445ZM70.4377 31.0625C70.6231 31.0625 70.8044 31.1175 70.9585 31.2205C71.1127 31.3235 71.2329 31.4699 71.3038 31.6412C71.3748 31.8125 71.3934 32.001 71.3572 32.1829C71.321 32.3648 71.2317 32.5318 71.1006 32.6629C70.9695 32.794 70.8024 32.8833 70.6206 32.9195C70.4387 32.9557 70.2502 32.9371 70.0789 32.8661C69.9076 32.7952 69.7612 32.675 69.6582 32.5209C69.5552 32.3667 69.5002 32.1854 69.5002 32C69.5002 31.7514 69.599 31.5129 69.7748 31.3371C69.9506 31.1613 70.1891 31.0625 70.4377 31.0625ZM30.1664 22.2153C30.2103 22.1719 30.2495 22.1242 30.2836 22.0728C31.0354 21.0793 32.0071 20.2735 33.1227 19.7186C34.2382 19.1638 35.4671 18.875 36.713 18.875C41.0574 18.875 44.4286 22.1834 44.4624 22.2163C44.5494 22.3034 44.6528 22.3726 44.7667 22.4198C44.8805 22.4669 45.0025 22.4912 45.1257 22.4912C45.2489 22.4912 45.3709 22.4669 45.4847 22.4198C45.5985 22.3726 45.7019 22.3034 45.7889 22.2163C45.8227 22.1816 49.1696 18.875 53.5374 18.875C54.7841 18.8703 56.0147 19.157 57.1309 19.7122C58.2472 20.2674 59.2183 21.0758 59.9668 22.0728C60.0009 22.1242 60.0401 22.1719 60.0839 22.2153C60.8272 23.1307 61.3771 24.1872 61.7004 25.3212C62.0236 26.4551 62.1135 27.6428 61.9646 28.8125C61.9022 29.5723 61.7736 30.3251 61.5802 31.0625H54.1064L50.6264 24.9688C50.5393 24.8148 50.4103 24.6887 50.2544 24.605C50.0986 24.5212 49.9222 24.4833 49.7458 24.4956C49.5693 24.5078 49.3999 24.5698 49.2571 24.6742C49.1143 24.7787 49.004 24.9214 48.9389 25.0859L44.303 36.6875L41.333 27.0369C41.2798 26.8638 41.1775 26.7098 41.0386 26.5936C40.8997 26.4773 40.7302 26.4038 40.5504 26.3819C40.3706 26.36 40.1883 26.3906 40.0256 26.4701C39.8628 26.5495 39.7266 26.6744 39.6333 26.8297L37.0936 31.0625H31.0627V32.9375H37.6252C37.787 32.9375 37.946 32.8956 38.0868 32.8159C38.2275 32.7362 38.3453 32.6215 38.4286 32.4828L40.1564 29.5981L43.2886 39.7756C43.3465 39.9601 43.46 40.1222 43.6135 40.2397C43.7671 40.3572 43.9532 40.4243 44.1464 40.4319H44.1877C44.3752 40.432 44.5584 40.3758 44.7136 40.2707C44.8689 40.1656 44.9891 40.0163 45.0586 39.8422L49.9618 27.5825L52.7489 32.4575C52.8299 32.6024 52.948 32.7232 53.0909 32.8075C53.2339 32.8918 53.3967 32.9367 53.5627 32.9375H60.9689C59.2336 37.355 54.9174 43.28 45.1252 50.5241C31.9149 40.7516 28.6711 33.3763 28.2914 28.8875C28.1312 27.7063 28.215 26.5047 28.5375 25.3571C28.86 24.2095 29.4144 23.1402 30.1664 22.2153ZM17.0002 31.0625H24.5002V32.9375H17.0002V31.0625Z" fill="#FF5323"/>
</svg>
