<svg width="90" height="90" viewBox="0 0 90 90" fill="none" xmlns="http://www.w3.org/2000/svg">
<mask id="mask0_63_4" style="mask-type:alpha" maskUnits="userSpaceOnUse" x="15" y="15" width="60" height="60">
<path d="M73.751 28.7502C73.0589 28.7502 72.4985 29.3096 72.4985 29.9999V40.0002H70.001V37.4999C70.001 34.7432 67.7561 32.5003 64.9985 32.5003C63.5081 32.5003 62.1678 33.1576 61.2486 34.1984C60.3331 33.1576 58.9927 32.5003 57.4986 32.5003C56.0082 32.5003 54.6679 33.1576 53.7487 34.1984C52.8332 33.1576 51.4928 32.5003 49.9987 32.5003C48.5081 32.5003 47.1679 33.1576 46.2496 34.1984C45.3332 33.1576 43.9928 32.5003 42.4996 32.5003C41.0082 32.5003 39.667 33.1576 38.7495 34.1984C37.8331 33.1576 36.4927 32.5003 34.9995 32.5003C33.5082 32.5003 32.167 33.1576 31.2495 34.1984C30.3331 33.1576 28.9927 32.5003 27.4995 32.5003C25.1751 32.5003 23.2139 34.0959 22.6573 36.2502H18.75C18.0597 36.2502 17.5003 36.8095 17.5003 37.4999V40.0002H16.2497C15.5593 40.0002 15 40.5595 15 41.2499C15 41.9402 15.5593 42.4996 16.2497 42.4996H17.5003V44.9999C17.5003 45.6902 18.0597 46.2496 18.75 46.2496H22.5V70.001C22.5 72.7568 24.7431 74.9998 27.4997 74.9998C28.9929 74.9998 30.3333 74.3406 31.2498 73.3005C32.1671 74.3406 33.5083 74.9998 34.9998 74.9998C36.493 74.9998 37.8334 74.3406 38.7498 73.3005C39.6671 74.3406 41.0083 74.9998 42.4998 74.9998C43.993 74.9998 45.3334 74.3406 46.2498 73.3005C47.1681 74.3406 48.5084 74.9998 49.9989 74.9998C51.493 74.9998 52.8334 74.3406 53.7489 73.3005C54.6681 74.3406 56.0084 74.9998 57.4988 74.9998C58.9929 74.9998 60.3333 74.3406 61.2488 73.3005C62.168 74.3406 63.5083 74.9998 64.9987 74.9998C67.7563 74.9998 70.0012 72.7567 70.0012 70.001V42.4996H73.7512C74.4397 42.4996 75 41.9402 75 41.2499V29.9999C74.9998 29.3096 74.4395 28.7502 73.751 28.7502ZM22.5 43.7502H19.9997V38.7495H22.5V43.7502ZM29.9999 70.001C29.9999 71.378 28.8793 72.4985 27.4996 72.4985C26.1218 72.4985 25.0002 71.378 25.0002 70.001V37.4999C25.0002 36.122 26.1217 34.9995 27.4996 34.9995C28.8793 34.9995 29.9999 36.122 29.9999 37.4999V70.001ZM37.5 70.001C37.4999 71.378 36.3793 72.4985 34.9996 72.4985C33.6219 72.4985 32.5003 71.378 32.5003 70.001V37.4999C32.5003 36.122 33.6218 34.9995 34.9996 34.9995C36.3793 34.9995 37.5 36.122 37.5 37.4999V70.001ZM44.9999 70.001C44.9999 71.378 43.8793 72.4985 42.4996 72.4985C41.1218 72.4985 40.0002 71.378 40.0002 70.001V37.4999C40.0002 36.122 41.1217 34.9995 42.4996 34.9995C43.8792 34.9995 44.9999 36.122 44.9999 37.4999V70.001ZM52.4999 70.001C52.4999 71.378 51.3794 72.4985 49.9987 72.4985C48.6217 72.4985 47.5011 71.378 47.5011 70.001V37.4999C47.5011 36.122 48.6217 34.9995 49.9987 34.9995C51.3792 34.9995 52.4999 36.122 52.4999 37.4999V70.001ZM59.9998 70.001C59.9998 71.378 58.8793 72.4985 57.4986 72.4985C56.1217 72.4985 55.0011 71.378 55.0011 70.001V37.4999C55.0011 36.122 56.1216 34.9995 57.4986 34.9995C58.8792 34.9995 59.9998 36.122 59.9998 37.4999V70.001ZM67.4997 70.001C67.4997 71.378 66.3792 72.4985 64.9985 72.4985C63.6216 72.4985 62.501 71.378 62.501 70.001V37.4999C62.501 36.122 63.6215 34.9995 64.9985 34.9995C66.3791 34.9995 67.4997 36.122 67.4997 37.4999V70.001ZM56.821 27.149C56.6672 26.6171 56.7624 26.2298 57.136 25.8535C58.1504 24.8345 58.4873 23.5116 58.0808 22.1255C57.8098 21.1953 57.2825 20.538 57.2165 20.4556C57.2129 20.4556 57.2129 20.4546 57.2129 20.4546V20.4529C56.9821 20.1764 56.6379 19.9997 56.2497 19.9997C55.5595 19.9997 55.0011 20.56 55.0011 21.2503C55.0011 21.5534 55.1072 21.8317 55.2868 22.0478C55.2904 22.0505 55.5541 22.3921 55.6823 22.8278C55.8306 23.3396 55.7372 23.7168 55.3636 24.0894C54.3529 25.1064 54.0142 26.4385 54.417 27.8392C54.6898 28.7887 55.2172 29.4606 55.2757 29.5348C55.5065 29.8187 55.8562 29.9999 56.2498 29.9999C56.9402 29.9999 57.4986 29.4406 57.4986 28.7502C57.4986 28.4527 57.396 28.1799 57.2239 27.9657C57.2202 27.962 56.9492 27.604 56.821 27.149ZM46.4832 26.3214C46.1949 25.1688 46.4256 24.1892 47.1864 23.3276C48.523 21.8169 48.9478 19.9649 48.4169 17.9691C48.0433 16.5701 47.3256 15.5987 47.245 15.4925V15.4944C47.0142 15.195 46.6563 15 46.2498 15C45.5592 15 44.9999 15.5593 44.9999 16.2497C44.9999 16.5326 45.0942 16.7926 45.2525 17.0013H45.2507C45.2562 17.0086 45.7771 17.7172 46.0179 18.6795C46.3054 19.8311 46.0746 20.8108 45.3129 21.6722C43.9781 23.1829 43.5533 25.035 44.0844 27.0309C44.4561 28.4299 45.1748 29.4012 45.2544 29.5074L45.2563 29.5055C45.3722 29.6593 45.5223 29.7841 45.6947 29.8699C45.8671 29.9557 46.0571 30.0002 46.2497 29.9999C46.9409 29.9999 47.5013 29.4406 47.5013 28.7502C47.5013 28.4674 47.4061 28.2073 47.2486 27.9986C47.2431 27.9913 46.7222 27.2827 46.4832 26.3214ZM37.2235 27.9657C37.2208 27.962 36.9507 27.604 36.8198 27.149C36.6669 26.6171 36.7612 26.2298 37.1356 25.8535C38.1509 24.8345 38.486 23.5116 38.0804 22.1255C37.8085 21.1953 37.2848 20.5398 37.2143 20.4556L37.2133 20.4546L37.2124 20.4519C36.9826 20.1755 36.6375 19.9997 36.2502 19.9997C35.5598 19.9997 34.9995 20.56 34.9995 21.2503C34.9995 21.5534 35.1076 21.8317 35.287 22.0478C35.2897 22.0505 35.5534 22.3921 35.6806 22.8278C35.8307 23.3396 35.7356 23.7168 35.3639 24.0894C34.3514 25.1064 34.0145 26.4385 34.4173 27.8392C34.6902 28.7887 35.2175 29.4606 35.277 29.5348C35.5068 29.8187 35.8565 29.9999 36.2503 29.9999C36.9406 29.9999 37.5 29.4406 37.5 28.7502C37.5 28.4527 37.3965 28.1799 37.2235 27.9657Z" fill="#121212"/>
</mask>
<g mask="url(#mask0_63_4)">
<path d="M30.5 32H15.5L12.5 48L17.5 49L15.5 79H75L76.5 76.5V27L72 25.5L63 30L30.5 32Z" fill="#0074D9"/>
</g>
<mask id="mask1_63_4" style="mask-type:alpha" maskUnits="userSpaceOnUse" x="15" y="15" width="60" height="60">
<path d="M73.751 28.7502C73.0589 28.7502 72.4985 29.3096 72.4985 29.9999V40.0002H70.001V37.4999C70.001 34.7432 67.7561 32.5003 64.9985 32.5003C63.5081 32.5003 62.1678 33.1576 61.2486 34.1984C60.3331 33.1576 58.9927 32.5003 57.4986 32.5003C56.0082 32.5003 54.6679 33.1576 53.7487 34.1984C52.8332 33.1576 51.4928 32.5003 49.9987 32.5003C48.5081 32.5003 47.1679 33.1576 46.2496 34.1984C45.3332 33.1576 43.9928 32.5003 42.4996 32.5003C41.0082 32.5003 39.667 33.1576 38.7495 34.1984C37.8331 33.1576 36.4927 32.5003 34.9995 32.5003C33.5082 32.5003 32.167 33.1576 31.2495 34.1984C30.3331 33.1576 28.9927 32.5003 27.4995 32.5003C25.1751 32.5003 23.2139 34.0959 22.6573 36.2502H18.75C18.0597 36.2502 17.5003 36.8095 17.5003 37.4999V40.0002H16.2497C15.5593 40.0002 15 40.5595 15 41.2499C15 41.9402 15.5593 42.4996 16.2497 42.4996H17.5003V44.9999C17.5003 45.6902 18.0597 46.2496 18.75 46.2496H22.5V70.001C22.5 72.7568 24.7431 74.9998 27.4997 74.9998C28.9929 74.9998 30.3333 74.3406 31.2498 73.3005C32.1671 74.3406 33.5083 74.9998 34.9998 74.9998C36.493 74.9998 37.8334 74.3406 38.7498 73.3005C39.6671 74.3406 41.0083 74.9998 42.4998 74.9998C43.993 74.9998 45.3334 74.3406 46.2498 73.3005C47.1681 74.3406 48.5084 74.9998 49.9989 74.9998C51.493 74.9998 52.8334 74.3406 53.7489 73.3005C54.6681 74.3406 56.0084 74.9998 57.4988 74.9998C58.9929 74.9998 60.3333 74.3406 61.2488 73.3005C62.168 74.3406 63.5083 74.9998 64.9987 74.9998C67.7563 74.9998 70.0012 72.7567 70.0012 70.001V42.4996H73.7512C74.4397 42.4996 75 41.9402 75 41.2499V29.9999C74.9998 29.3096 74.4395 28.7502 73.751 28.7502ZM22.5 43.7502H19.9997V38.7495H22.5V43.7502ZM29.9999 70.001C29.9999 71.378 28.8793 72.4985 27.4996 72.4985C26.1218 72.4985 25.0002 71.378 25.0002 70.001V37.4999C25.0002 36.122 26.1217 34.9995 27.4996 34.9995C28.8793 34.9995 29.9999 36.122 29.9999 37.4999V70.001ZM37.5 70.001C37.4999 71.378 36.3793 72.4985 34.9996 72.4985C33.6219 72.4985 32.5003 71.378 32.5003 70.001V37.4999C32.5003 36.122 33.6218 34.9995 34.9996 34.9995C36.3793 34.9995 37.5 36.122 37.5 37.4999V70.001ZM44.9999 70.001C44.9999 71.378 43.8793 72.4985 42.4996 72.4985C41.1218 72.4985 40.0002 71.378 40.0002 70.001V37.4999C40.0002 36.122 41.1217 34.9995 42.4996 34.9995C43.8792 34.9995 44.9999 36.122 44.9999 37.4999V70.001ZM52.4999 70.001C52.4999 71.378 51.3794 72.4985 49.9987 72.4985C48.6217 72.4985 47.5011 71.378 47.5011 70.001V37.4999C47.5011 36.122 48.6217 34.9995 49.9987 34.9995C51.3792 34.9995 52.4999 36.122 52.4999 37.4999V70.001ZM59.9998 70.001C59.9998 71.378 58.8793 72.4985 57.4986 72.4985C56.1217 72.4985 55.0011 71.378 55.0011 70.001V37.4999C55.0011 36.122 56.1216 34.9995 57.4986 34.9995C58.8792 34.9995 59.9998 36.122 59.9998 37.4999V70.001ZM67.4997 70.001C67.4997 71.378 66.3792 72.4985 64.9985 72.4985C63.6216 72.4985 62.501 71.378 62.501 70.001V37.4999C62.501 36.122 63.6215 34.9995 64.9985 34.9995C66.3791 34.9995 67.4997 36.122 67.4997 37.4999V70.001ZM56.821 27.149C56.6672 26.6171 56.7624 26.2298 57.136 25.8535C58.1504 24.8345 58.4873 23.5116 58.0808 22.1255C57.8098 21.1953 57.2825 20.538 57.2165 20.4556C57.2129 20.4556 57.2129 20.4546 57.2129 20.4546V20.4529C56.9821 20.1764 56.6379 19.9997 56.2497 19.9997C55.5595 19.9997 55.0011 20.56 55.0011 21.2503C55.0011 21.5534 55.1072 21.8317 55.2868 22.0478C55.2904 22.0505 55.5541 22.3921 55.6823 22.8278C55.8306 23.3396 55.7372 23.7168 55.3636 24.0894C54.3529 25.1064 54.0142 26.4385 54.417 27.8392C54.6898 28.7887 55.2172 29.4606 55.2757 29.5348C55.5065 29.8187 55.8562 29.9999 56.2498 29.9999C56.9402 29.9999 57.4986 29.4406 57.4986 28.7502C57.4986 28.4527 57.396 28.1799 57.2239 27.9657C57.2202 27.962 56.9492 27.604 56.821 27.149ZM46.4832 26.3214C46.1949 25.1688 46.4256 24.1892 47.1864 23.3276C48.523 21.8169 48.9478 19.9649 48.4169 17.9691C48.0433 16.5701 47.3256 15.5987 47.245 15.4925V15.4944C47.0142 15.195 46.6563 15 46.2498 15C45.5592 15 44.9999 15.5593 44.9999 16.2497C44.9999 16.5326 45.0942 16.7926 45.2525 17.0013H45.2507C45.2562 17.0086 45.7771 17.7172 46.0179 18.6795C46.3054 19.8311 46.0746 20.8108 45.3129 21.6722C43.9781 23.1829 43.5533 25.035 44.0844 27.0309C44.4561 28.4299 45.1748 29.4012 45.2544 29.5074L45.2563 29.5055C45.3722 29.6593 45.5223 29.7841 45.6947 29.8699C45.8671 29.9557 46.0571 30.0002 46.2497 29.9999C46.9409 29.9999 47.5013 29.4406 47.5013 28.7502C47.5013 28.4674 47.4061 28.2073 47.2486 27.9986C47.2431 27.9913 46.7222 27.2827 46.4832 26.3214ZM37.2235 27.9657C37.2208 27.962 36.9507 27.604 36.8198 27.149C36.6669 26.6171 36.7612 26.2298 37.1356 25.8535C38.1509 24.8345 38.486 23.5116 38.0804 22.1255C37.8085 21.1953 37.2848 20.5398 37.2143 20.4556L37.2133 20.4546L37.2124 20.4519C36.9826 20.1755 36.6375 19.9997 36.2502 19.9997C35.5598 19.9997 34.9995 20.56 34.9995 21.2503C34.9995 21.5534 35.1076 21.8317 35.287 22.0478C35.2897 22.0505 35.5534 22.3921 35.6806 22.8278C35.8307 23.3396 35.7356 23.7168 35.3639 24.0894C34.3514 25.1064 34.0145 26.4385 34.4173 27.8392C34.6902 28.7887 35.2175 29.4606 35.277 29.5348C35.5068 29.8187 35.8565 29.9999 36.2503 29.9999C36.9406 29.9999 37.5 29.4406 37.5 28.7502C37.5 28.4527 37.3965 28.1799 37.2235 27.9657Z" fill="#121212"/>
</mask>
<g mask="url(#mask1_63_4)">
<path d="M60.5 31H31.5L33 14.5L47 5.5L60.5 14.5V31Z" fill="#FF5323"/>
</g>
</svg>
