<svg width="40" height="40" viewBox="0 0 40 40" fill="none" xmlns="http://www.w3.org/2000/svg">
<g clip-path="url(#clip0_38_163)">
<path d="M36.7622 10.2994C36.7417 9.21941 36.7221 8.1992 36.7221 7.21222C36.7221 6.84089 36.5746 6.48477 36.312 6.2222C36.0494 5.95963 35.6933 5.81212 35.322 5.81212C29.3342 5.81212 24.7753 4.0913 20.9752 0.396519C20.7139 0.142299 20.3637 6.10352e-05 19.9991 6.10352e-05C19.6346 6.10352e-05 19.2844 0.142299 19.0231 0.396519C15.2234 4.0913 10.6652 5.81212 4.67782 5.81212C4.30649 5.81212 3.95037 5.95963 3.6878 6.2222C3.42523 6.48477 3.27772 6.84089 3.27772 7.21222C3.27772 8.19938 3.2583 9.21997 3.23758 10.3001C3.04568 20.3502 2.78283 34.1143 19.5406 39.9229C19.8375 40.0259 20.1606 40.0259 20.4575 39.9229C37.2166 34.1142 36.9541 20.3497 36.7622 10.2994ZM19.9992 37.1143C5.62728 31.8934 5.84457 20.4564 6.03741 10.3535C6.04899 9.74715 6.06019 9.15948 6.06803 8.58339C11.6759 8.34668 16.1603 6.64732 19.9992 3.30313C23.8385 6.64732 28.3237 8.34686 33.9319 8.58339C33.9398 9.1593 33.951 9.74659 33.9626 10.3526C34.1552 20.4559 34.3723 31.8932 19.9992 37.1143Z" fill="#0074D9"/>
<path d="M24.8206 15.1364L18.063 21.8937L15.1793 19.0101C14.9153 18.7548 14.5615 18.6135 14.1942 18.6166C13.8269 18.6197 13.4756 18.767 13.2159 19.0267C12.9562 19.2865 12.809 19.6378 12.8059 20.0051C12.8028 20.3723 12.9441 20.7261 13.1994 20.9902L17.073 24.8638C17.2029 24.994 17.3572 25.0972 17.5271 25.1675C17.697 25.2379 17.8791 25.274 18.063 25.2737C18.2469 25.274 18.429 25.2379 18.5989 25.1675C18.7688 25.0972 18.9231 24.994 19.0529 24.8638L26.8004 17.1166C26.9304 16.9866 27.0336 16.8323 27.104 16.6624C27.1744 16.4925 27.2106 16.3105 27.2106 16.1266C27.2107 15.9428 27.1745 15.7607 27.1041 15.5908C27.0337 15.421 26.9306 15.2666 26.8006 15.1366C26.538 14.8741 26.1819 14.7265 25.8106 14.7265C25.4393 14.7265 25.0832 14.8739 24.8206 15.1364Z" fill="#0074D9"/>
</g>
<defs>
<clipPath id="clip0_38_163">
<rect width="40" height="40" fill="white"/>
</clipPath>
</defs>
</svg>
