<svg width="90" height="90" viewBox="0 0 90 90" fill="none" xmlns="http://www.w3.org/2000/svg">
<mask id="mask0_44_219" style="mask-type:alpha" maskUnits="userSpaceOnUse" x="14" y="7" width="62" height="76">
<path fill-rule="evenodd" clip-rule="evenodd" d="M52.6676 14.7545C52.1947 14.2808 52.1947 13.5116 52.6676 13.0387L53.9211 11.7852C54.1488 11.5581 54.4573 11.4306 54.779 11.4306C55.1006 11.4306 55.4091 11.5581 55.6369 11.7852C55.7497 11.898 55.8392 12.0318 55.9003 12.1792C55.9614 12.3266 55.9928 12.4845 55.9928 12.644C55.9928 12.8035 55.9614 12.9615 55.9003 13.1088C55.8392 13.2562 55.7497 13.3901 55.6369 13.5028L54.3851 14.7545C54.2724 14.8674 54.1385 14.9569 53.9912 15.018C53.8438 15.0791 53.6859 15.1106 53.5264 15.1106C53.3668 15.1106 53.2089 15.0791 53.0615 15.018C52.9142 14.9569 52.7803 14.8674 52.6676 14.7545ZM55.8445 22.4237C55.8444 22.2643 55.8757 22.1065 55.9366 21.9592C55.9975 21.8119 56.0869 21.6781 56.1996 21.5654C56.3123 21.4527 56.4461 21.3633 56.5934 21.3024C56.7407 21.2415 56.8985 21.2102 57.0579 21.2103H58.8296C58.989 21.2102 59.1468 21.2415 59.2941 21.3024C59.4413 21.3633 59.5752 21.4527 59.6879 21.5654C59.8006 21.6781 59.8899 21.8119 59.9509 21.9592C60.0118 22.1065 60.0431 22.2643 60.043 22.4237C60.0429 22.7455 59.915 23.0541 59.6875 23.2816C59.46 23.5091 59.1514 23.637 58.8296 23.6371H57.0579C56.7361 23.637 56.4275 23.5091 56.2 23.2816C55.9724 23.0541 55.8446 22.7455 55.8445 22.4237ZM55.6369 31.3446C56.404 32.1089 55.8504 33.4155 54.7794 33.4155C54.62 33.4157 54.4621 33.3844 54.3148 33.3235C54.1676 33.2626 54.0337 33.1732 53.9211 33.0604L52.6676 31.8069C52.1947 31.334 52.1947 30.5666 52.6676 30.092C52.8955 29.8645 53.2043 29.7367 53.5264 29.7367C53.8484 29.7367 54.1572 29.8645 54.3851 30.092L55.6369 31.3446ZM45.0002 33.268C45.1596 33.2679 45.3174 33.2992 45.4647 33.3601C45.6119 33.4211 45.7458 33.5104 45.8584 33.6231C45.9711 33.7358 46.0605 33.8696 46.1215 34.0169C46.1824 34.1642 46.2137 34.322 46.2136 34.4814V36.2531C46.2136 36.9221 45.671 37.4665 45.0002 37.4665C44.3294 37.4665 43.7868 36.9221 43.7868 36.2531V34.4814C43.7866 34.322 43.8179 34.1642 43.8789 34.0169C43.9398 33.8696 44.0292 33.7358 44.1419 33.6231C44.2546 33.5104 44.3884 33.4211 44.5357 33.3601C44.683 33.2992 44.8408 33.2679 45.0002 33.268ZM37.3328 30.092C37.8056 30.5666 37.8056 31.3342 37.3328 31.8069L36.0793 33.0604C35.6064 33.5332 34.8384 33.5339 34.3635 33.0604C33.8889 32.5867 33.8889 31.8173 34.3635 31.3446L35.6152 30.092C35.8432 29.8646 36.152 29.7368 36.474 29.7368C36.796 29.7368 37.1048 29.8646 37.3328 30.092ZM29.9566 22.4237C29.9566 22.2643 29.988 22.1064 30.049 21.9591C30.1101 21.8118 30.1995 21.678 30.3123 21.5653C30.4251 21.4526 30.559 21.3633 30.7063 21.3023C30.8536 21.2414 31.0115 21.2101 31.1709 21.2103H32.9425C33.1018 21.2103 33.2596 21.2416 33.4068 21.3026C33.5541 21.3636 33.6878 21.4529 33.8005 21.5656C33.9132 21.6783 34.0026 21.8121 34.0636 21.9593C34.1245 22.1065 34.1559 22.2643 34.1559 22.4237C34.1557 22.7455 34.0278 23.054 33.8003 23.2815C33.5727 23.509 33.2642 23.6369 32.9425 23.6371H31.1709C30.849 23.6371 30.5403 23.5093 30.3126 23.2818C30.0849 23.0542 29.9569 22.7456 29.9566 22.4237ZM34.3635 13.5028C34.2506 13.3901 34.1611 13.2562 34.1 13.1088C34.039 12.9615 34.0075 12.8035 34.0075 12.644C34.0075 12.4845 34.039 12.3266 34.1 12.1792C34.1611 12.0318 34.2506 11.898 34.3635 11.7852C34.8372 11.3124 35.6064 11.3124 36.0793 11.7852L37.3328 13.0387C38.095 13.8009 37.5502 15.1105 36.4736 15.1105C36.3141 15.1108 36.1561 15.0795 36.0088 15.0184C35.8615 14.9573 35.7277 14.8676 35.6152 14.7545L34.3635 13.5028ZM43.7868 10.3642V8.59428C43.7868 7.9235 44.3294 7.38086 45.0002 7.38086C45.671 7.38086 46.2136 7.9235 46.2136 8.59428V10.3642C46.2136 11.035 45.671 11.5776 45.0002 11.5776C44.3294 11.5776 43.7868 11.035 43.7868 10.3642ZM45.0002 17.0399C47.9686 17.0399 50.3822 19.4553 50.3822 22.4237C50.3822 25.3904 47.9686 27.8058 45.0002 27.8058C42.0335 27.8058 39.6181 25.3904 39.6181 22.4237C39.6181 19.4553 42.0335 17.0399 45.0002 17.0399ZM45.0002 30.2324C49.3066 30.2324 52.8089 26.7284 52.8089 22.4237C52.8089 18.1172 49.3066 14.6132 45.0002 14.6132C40.6937 14.6132 37.1914 18.1172 37.1914 22.4237C37.1914 26.7284 40.6937 30.2324 45.0002 30.2324ZM55.8403 66.8095L54.0896 55.4976L67.2516 55.5159L72.4968 66.8095H55.8403ZM47.3955 80.1914H42.6048V69.2362H47.3955V80.1914ZM22.7758 55.4567L35.9153 55.4758L34.1603 66.8095H17.5038L22.7758 55.4567ZM28.1275 43.9328C28.3328 43.8885 36.7335 43.9163 37.7035 43.9163L36.2904 53.0483L23.902 53.0318L28.1275 43.9328ZM51.6322 55.495L53.3848 66.8095H36.6166L38.3716 55.4785L51.6322 55.495ZM38.7459 53.0516L40.1599 43.9161H49.8389L51.2564 53.0683L38.7459 53.0516ZM61.8729 43.9346L66.1245 53.0875L53.7135 53.071L52.2969 43.9161H61.7316C61.7936 43.9161 61.8425 43.9258 61.8729 43.9346ZM74.947 66.321L64.0267 42.8092C63.649 41.9945 62.7688 41.4895 61.7317 41.4895H28.2686C27.2306 41.4895 26.3514 41.9962 25.9736 42.811L15.0534 66.321C14.3907 67.7487 15.6023 69.2362 17.3501 69.2362H40.1781V80.1914H25.2322C25.0728 80.1913 24.915 80.2227 24.7678 80.2837C24.6205 80.3446 24.4867 80.434 24.374 80.5467C24.2614 80.6594 24.172 80.7932 24.111 80.9404C24.0501 81.0876 24.0187 81.2455 24.0187 81.4048C24.0186 81.5642 24.0499 81.7221 24.1109 81.8694C24.1718 82.0168 24.2612 82.1506 24.3738 82.2634C24.4865 82.3762 24.6203 82.4656 24.7676 82.5267C24.9149 82.5877 25.0727 82.6191 25.2322 82.6191H65.7939C65.9533 82.6191 66.1112 82.5877 66.2585 82.5267C66.4057 82.4657 66.5396 82.3762 66.6522 82.2634C66.7649 82.1507 66.8543 82.0168 66.9152 81.8695C66.9761 81.7221 67.0074 81.5642 67.0073 81.4048C67.0073 81.2455 66.9759 81.0877 66.915 80.9404C66.854 80.7932 66.7646 80.6594 66.6519 80.5467C66.5393 80.4341 66.4055 80.3447 66.2583 80.2837C66.111 80.2227 65.9532 80.1914 65.7939 80.1914H49.8222V69.2362H72.6502C74.4003 69.2362 75.6083 67.7503 74.947 66.321Z" fill="#121212"/>
</mask>
<g mask="url(#mask0_44_219)">
<path d="M71 40H23H12.5V87H83V65L71 40Z" fill="#0074D9"/>
</g>
<mask id="mask1_44_219" style="mask-type:alpha" maskUnits="userSpaceOnUse" x="14" y="7" width="62" height="76">
<path fill-rule="evenodd" clip-rule="evenodd" d="M52.6676 14.7545C52.1947 14.2808 52.1947 13.5116 52.6676 13.0387L53.9211 11.7852C54.1488 11.5581 54.4573 11.4306 54.779 11.4306C55.1006 11.4306 55.4091 11.5581 55.6369 11.7852C55.7497 11.898 55.8392 12.0318 55.9003 12.1792C55.9614 12.3266 55.9928 12.4845 55.9928 12.644C55.9928 12.8035 55.9614 12.9615 55.9003 13.1088C55.8392 13.2562 55.7497 13.3901 55.6369 13.5028L54.3851 14.7545C54.2724 14.8674 54.1385 14.9569 53.9912 15.018C53.8438 15.0791 53.6859 15.1106 53.5264 15.1106C53.3668 15.1106 53.2089 15.0791 53.0615 15.018C52.9142 14.9569 52.7803 14.8674 52.6676 14.7545ZM55.8445 22.4237C55.8444 22.2643 55.8757 22.1065 55.9366 21.9592C55.9975 21.8119 56.0869 21.6781 56.1996 21.5654C56.3123 21.4527 56.4461 21.3633 56.5934 21.3024C56.7407 21.2415 56.8985 21.2102 57.0579 21.2103H58.8296C58.989 21.2102 59.1468 21.2415 59.2941 21.3024C59.4413 21.3633 59.5752 21.4527 59.6879 21.5654C59.8006 21.6781 59.8899 21.8119 59.9509 21.9592C60.0118 22.1065 60.0431 22.2643 60.043 22.4237C60.0429 22.7455 59.915 23.0541 59.6875 23.2816C59.46 23.5091 59.1514 23.637 58.8296 23.6371H57.0579C56.7361 23.637 56.4275 23.5091 56.2 23.2816C55.9724 23.0541 55.8446 22.7455 55.8445 22.4237ZM55.6369 31.3446C56.404 32.1089 55.8504 33.4155 54.7794 33.4155C54.62 33.4157 54.4621 33.3844 54.3148 33.3235C54.1676 33.2626 54.0337 33.1732 53.9211 33.0604L52.6676 31.8069C52.1947 31.334 52.1947 30.5666 52.6676 30.092C52.8955 29.8645 53.2043 29.7367 53.5264 29.7367C53.8484 29.7367 54.1572 29.8645 54.3851 30.092L55.6369 31.3446ZM45.0002 33.268C45.1596 33.2679 45.3174 33.2992 45.4647 33.3601C45.6119 33.4211 45.7458 33.5104 45.8584 33.6231C45.9711 33.7358 46.0605 33.8696 46.1215 34.0169C46.1824 34.1642 46.2137 34.322 46.2136 34.4814V36.2531C46.2136 36.9221 45.671 37.4665 45.0002 37.4665C44.3294 37.4665 43.7868 36.9221 43.7868 36.2531V34.4814C43.7866 34.322 43.8179 34.1642 43.8789 34.0169C43.9398 33.8696 44.0292 33.7358 44.1419 33.6231C44.2546 33.5104 44.3884 33.4211 44.5357 33.3601C44.683 33.2992 44.8408 33.2679 45.0002 33.268ZM37.3328 30.092C37.8056 30.5666 37.8056 31.3342 37.3328 31.8069L36.0793 33.0604C35.6064 33.5332 34.8384 33.5339 34.3635 33.0604C33.8889 32.5867 33.8889 31.8173 34.3635 31.3446L35.6152 30.092C35.8432 29.8646 36.152 29.7368 36.474 29.7368C36.796 29.7368 37.1048 29.8646 37.3328 30.092ZM29.9566 22.4237C29.9566 22.2643 29.988 22.1064 30.049 21.9591C30.1101 21.8118 30.1995 21.678 30.3123 21.5653C30.4251 21.4526 30.559 21.3633 30.7063 21.3023C30.8536 21.2414 31.0115 21.2101 31.1709 21.2103H32.9425C33.1018 21.2103 33.2596 21.2416 33.4068 21.3026C33.5541 21.3636 33.6878 21.4529 33.8005 21.5656C33.9132 21.6783 34.0026 21.8121 34.0636 21.9593C34.1245 22.1065 34.1559 22.2643 34.1559 22.4237C34.1557 22.7455 34.0278 23.054 33.8003 23.2815C33.5727 23.509 33.2642 23.6369 32.9425 23.6371H31.1709C30.849 23.6371 30.5403 23.5093 30.3126 23.2818C30.0849 23.0542 29.9569 22.7456 29.9566 22.4237ZM34.3635 13.5028C34.2506 13.3901 34.1611 13.2562 34.1 13.1088C34.039 12.9615 34.0075 12.8035 34.0075 12.644C34.0075 12.4845 34.039 12.3266 34.1 12.1792C34.1611 12.0318 34.2506 11.898 34.3635 11.7852C34.8372 11.3124 35.6064 11.3124 36.0793 11.7852L37.3328 13.0387C38.095 13.8009 37.5502 15.1105 36.4736 15.1105C36.3141 15.1108 36.1561 15.0795 36.0088 15.0184C35.8615 14.9573 35.7277 14.8676 35.6152 14.7545L34.3635 13.5028ZM43.7868 10.3642V8.59428C43.7868 7.9235 44.3294 7.38086 45.0002 7.38086C45.671 7.38086 46.2136 7.9235 46.2136 8.59428V10.3642C46.2136 11.035 45.671 11.5776 45.0002 11.5776C44.3294 11.5776 43.7868 11.035 43.7868 10.3642ZM45.0002 17.0399C47.9686 17.0399 50.3822 19.4553 50.3822 22.4237C50.3822 25.3904 47.9686 27.8058 45.0002 27.8058C42.0335 27.8058 39.6181 25.3904 39.6181 22.4237C39.6181 19.4553 42.0335 17.0399 45.0002 17.0399ZM45.0002 30.2324C49.3066 30.2324 52.8089 26.7284 52.8089 22.4237C52.8089 18.1172 49.3066 14.6132 45.0002 14.6132C40.6937 14.6132 37.1914 18.1172 37.1914 22.4237C37.1914 26.7284 40.6937 30.2324 45.0002 30.2324ZM55.8403 66.8095L54.0896 55.4976L67.2516 55.5159L72.4968 66.8095H55.8403ZM47.3955 80.1914H42.6048V69.2362H47.3955V80.1914ZM22.7758 55.4567L35.9153 55.4758L34.1603 66.8095H17.5038L22.7758 55.4567ZM28.1275 43.9328C28.3328 43.8885 36.7335 43.9163 37.7035 43.9163L36.2904 53.0483L23.902 53.0318L28.1275 43.9328ZM51.6322 55.495L53.3848 66.8095H36.6166L38.3716 55.4785L51.6322 55.495ZM38.7459 53.0516L40.1599 43.9161H49.8389L51.2564 53.0683L38.7459 53.0516ZM61.8729 43.9346L66.1245 53.0875L53.7135 53.071L52.2969 43.9161H61.7316C61.7936 43.9161 61.8425 43.9258 61.8729 43.9346ZM74.947 66.321L64.0267 42.8092C63.649 41.9945 62.7688 41.4895 61.7317 41.4895H28.2686C27.2306 41.4895 26.3514 41.9962 25.9736 42.811L15.0534 66.321C14.3907 67.7487 15.6023 69.2362 17.3501 69.2362H40.1781V80.1914H25.2322C25.0728 80.1913 24.915 80.2227 24.7678 80.2837C24.6205 80.3446 24.4867 80.434 24.374 80.5467C24.2614 80.6594 24.172 80.7932 24.111 80.9404C24.0501 81.0876 24.0187 81.2455 24.0187 81.4048C24.0186 81.5642 24.0499 81.7221 24.1109 81.8694C24.1718 82.0168 24.2612 82.1506 24.3738 82.2634C24.4865 82.3762 24.6203 82.4656 24.7676 82.5267C24.9149 82.5877 25.0727 82.6191 25.2322 82.6191H65.7939C65.9533 82.6191 66.1112 82.5877 66.2585 82.5267C66.4057 82.4657 66.5396 82.3762 66.6522 82.2634C66.7649 82.1507 66.8543 82.0168 66.9152 81.8695C66.9761 81.7221 67.0074 81.5642 67.0073 81.4048C67.0073 81.2455 66.9759 81.0877 66.915 80.9404C66.854 80.7932 66.7646 80.6594 66.6519 80.5467C66.5393 80.4341 66.4055 80.3447 66.2583 80.2837C66.111 80.2227 65.9532 80.1914 65.7939 80.1914H49.8222V69.2362H72.6502C74.4003 69.2362 75.6083 67.7503 74.947 66.321Z" fill="#121212"/>
</mask>
<g mask="url(#mask1_44_219)">
<path d="M70.5 39H24.5V2.5H70.5V39Z" fill="#FF5323"/>
</g>
</svg>
